<?xml version="1.0" encoding="utf-8" standalone="no"?>
<!DOCTYPE svg PUBLIC "-//W3C//DTD SVG 1.1//EN"
  "http://www.w3.org/Graphics/SVG/1.1/DTD/svg11.dtd">
<svg xmlns:xlink="http://www.w3.org/1999/xlink" width="720pt" height="180pt" viewBox="0 0 720 180" xmlns="http://www.w3.org/2000/svg" version="1.1">
 <metadata>
  <rdf:RDF xmlns:dc="http://purl.org/dc/elements/1.1/" xmlns:cc="http://creativecommons.org/ns#" xmlns:rdf="http://www.w3.org/1999/02/22-rdf-syntax-ns#">
   <cc:Work>
    <dc:type rdf:resource="http://purl.org/dc/dcmitype/StillImage"/>
    <dc:date>2023-06-05T15:08:59.540963</dc:date>
    <dc:format>image/svg+xml</dc:format>
    <dc:creator>
     <cc:Agent>
      <dc:title>Matplotlib v3.7.1, https://matplotlib.org/</dc:title>
     </cc:Agent>
    </dc:creator>
   </cc:Work>
  </rdf:RDF>
 </metadata>
 <defs>
  <style type="text/css">*{stroke-linejoin: round; stroke-linecap: butt}</style>
 </defs>
 <g id="figure_1">
  <g id="patch_1">
   <path d="M 0 180 
L 720 180 
L 720 0 
L 0 0 
z
" style="fill: #ffffff"/>
  </g>
  <g id="axes_1">
   <g id="patch_2">
    <path d="M 90 160.2 
L 648 160.2 
L 648 21.6 
L 90 21.6 
z
" style="fill: #ffffff"/>
   </g>
   <g id="line2d_1">
    <path d="M 90 160.2 
L 648 160.2 
" clip-path="url(#pa09f5656ca)" style="fill: none; stroke: #000000; stroke-width: 0.5; stroke-linecap: square"/>
   </g>
   <g id="patch_3">
    <path d="M 90 142.875 
L 95.746863 142.875 
L 99.764184 155.465886 
L 103.7516 142.875 
L 109.528368 142.875 
L 113.515784 155.465886 
L 117.53809 142.875 
L 123.23511 142.875 
L 117.752413 160.2 
L 110.839231 160.2 
L 106.617555 147.029881 
L 102.445721 160.2 
L 95.527555 160.2 
L 90 142.875 
z
" clip-path="url(#pa09f5656ca)" style="fill: #4600ff"/>
   </g>
   <g id="patch_4">
    <path d="M 123.23511 141.633154 
Q 120.45505 142.248709 117.448901 142.560065 
Q 114.442753 142.875 111.168646 142.875 
Q 101.404943 142.875 95.702472 140.541618 
Q 90 138.208237 90 134.217868 
Q 90 130.213184 95.702472 127.883382 
Q 101.404943 125.55 111.168646 125.55 
Q 114.442753 125.55 117.448901 125.864935 
Q 120.45505 126.176291 123.23511 126.791846 
L 123.23511 130.245394 
Q 120.429929 129.429426 117.708485 129.050072 
Q 114.987041 128.670719 111.980893 128.670719 
Q 106.588247 128.670719 103.498362 130.148766 
Q 100.41685 131.623234 100.41685 134.217868 
Q 100.41685 136.801766 103.498362 138.279813 
Q 106.588247 139.754281 111.980893 139.754281 
Q 114.987041 139.754281 117.708485 139.374928 
Q 120.429929 138.991995 123.23511 138.176028 
L 123.23511 141.633154 
z
" clip-path="url(#pa09f5656ca)" style="fill: #ef0300"/>
   </g>
   <g id="patch_5">
    <path d="M 113.02199 122.393924 
L 100.240301 122.393924 
L 98.222139 125.55 
L 90 125.55 
L 101.74203 108.225 
L 111.49308 108.225 
L 123.23511 125.55 
L 115.019766 125.55 
L 113.02199 122.393924 
z
M 102.278848 119.17844 
L 110.963057 119.17844 
L 106.627748 112.287055 
L 102.278848 119.17844 
z
" clip-path="url(#pa09f5656ca)" style="fill: #b36139"/>
   </g>
   <g id="patch_6">
    <path d="M 100.587112 73.575 
L 112.647998 73.575 
L 112.647998 108.225 
L 100.587112 108.225 
L 100.587112 73.575 
z
" clip-path="url(#pa09f5656ca)" style="fill: #ea0063"/>
   </g>
   <g id="patch_7">
    <path d="M 90 21.6 
L 99.804037 21.6 
L 106.604747 49.414311 
L 113.450284 21.6 
L 123.23511 21.6 
L 123.23511 73.575 
L 115.954123 73.575 
L 115.954123 35.557281 
L 109.070165 63.583235 
L 104.184156 63.583235 
L 97.300198 35.557281 
L 97.300198 73.575 
L 90 73.575 
L 90 21.6 
z
" clip-path="url(#pa09f5656ca)" style="fill: #a10c56"/>
   </g>
   <g id="patch_8">
    <path d="M 124.984326 144.874387 
L 130.731189 144.874387 
L 134.74851 156.012225 
L 138.735926 144.874387 
L 144.512694 144.874387 
L 148.50011 156.012225 
L 152.522416 144.874387 
L 158.219436 144.874387 
L 152.736739 160.2 
L 145.823557 160.2 
L 141.601881 148.549775 
L 137.430047 160.2 
L 130.511881 160.2 
L 124.984326 144.874387 
z
" clip-path="url(#pa09f5656ca)" style="fill: #4600ff"/>
   </g>
   <g id="patch_9">
    <path d="M 125.330212 129.548774 
L 157.87355 129.548774 
L 157.87355 132.537695 
L 137.391098 132.537695 
L 137.391098 135.388667 
L 156.660443 135.388667 
L 156.660443 138.377588 
L 137.391098 138.377588 
L 137.391098 144.874387 
L 125.330212 144.874387 
L 125.330212 129.548774 
z
" clip-path="url(#pa09f5656ca)" style="fill: #da06b6"/>
   </g>
   <g id="patch_10">
    <path d="M 138.469322 121.018852 
Q 141.45196 121.018852 142.746015 120.559018 
Q 144.040069 120.095899 144.040069 119.038281 
Q 144.040069 117.990516 142.746015 117.540535 
Q 141.45196 117.08727 138.469322 117.08727 
L 134.47669 117.08727 
L 134.47669 121.018852 
L 138.469322 121.018852 
z
M 134.47669 123.748295 
L 134.47669 129.548774 
L 124.984326 129.548774 
L 124.984326 114.223161 
L 139.479316 114.223161 
Q 146.754428 114.223161 150.139485 115.241365 
Q 153.532433 116.256284 153.532433 118.453634 
Q 153.532433 119.971087 151.764944 120.946592 
Q 150.005345 121.922097 146.454586 122.385216 
Q 148.403558 122.569149 149.942221 123.222771 
Q 151.488774 123.873107 153.066889 125.196773 
L 158.219436 129.548774 
L 148.111607 129.548774 
L 143.621869 125.742005 
Q 142.264689 124.592419 140.868057 124.172 
Q 139.479316 123.748295 137.159486 123.748295 
L 134.47669 123.748295 
z
" clip-path="url(#pa09f5656ca)" style="fill: #0a7dbc"/>
   </g>
   <g id="patch_11">
    <path d="M 124.984326 98.897548 
L 158.219436 98.897548 
L 158.219436 101.886469 
L 146.262525 101.886469 
L 146.262525 114.223161 
L 136.964424 114.223161 
L 136.964424 101.886469 
L 124.984326 101.886469 
L 124.984326 98.897548 
z
" clip-path="url(#pa09f5656ca)" style="fill: #843f07"/>
   </g>
   <g id="patch_12">
    <path d="M 135.571438 83.571935 
L 147.632324 83.571935 
L 147.632324 98.897548 
L 135.571438 98.897548 
L 135.571438 83.571935 
z
" clip-path="url(#pa09f5656ca)" style="fill: #ea0063"/>
   </g>
   <g id="patch_13">
    <path d="M 142.48815 76.69644 
L 141.837296 76.69644 
Q 133.853946 76.69644 129.415674 71.543863 
Q 124.984326 66.383197 124.984326 57.186212 
Q 124.984326 48.005404 129.40875 42.804294 
Q 133.833174 37.595096 141.601881 37.595096 
Q 149.453676 37.595096 153.836556 42.755761 
Q 158.219436 47.908338 158.219436 57.186212 
Q 158.219436 63.552111 155.892978 68.154648 
Q 153.56652 72.757186 149.197488 75.078676 
L 155.706031 83.571935 
L 147.764224 83.571935 
L 142.48815 76.69644 
z
M 141.601881 44.648544 
Q 137.793691 44.648544 135.695725 47.932604 
Q 133.597759 51.216664 133.597759 57.186212 
Q 133.597759 63.252825 135.647257 66.480263 
Q 137.703679 69.699613 141.601881 69.699613 
Q 145.430842 69.699613 147.528809 66.415553 
Q 149.626775 63.123404 149.626775 57.186212 
Q 149.626775 51.216664 147.528809 47.932604 
Q 145.430842 44.648544 141.601881 44.648544 
z
" clip-path="url(#pa09f5656ca)" style="fill: #19577b"/>
   </g>
   <g id="patch_14">
    <path d="M 182.990642 157.909851 
L 170.208953 157.909851 
L 168.190791 160.2 
L 159.968652 160.2 
L 171.710682 147.62843 
L 181.461732 147.62843 
L 193.203762 160.2 
L 184.988418 160.2 
L 182.990642 157.909851 
z
M 172.2475 155.576594 
L 180.931709 155.576594 
L 176.5964 150.575986 
L 172.2475 155.576594 
z
" clip-path="url(#pa09f5656ca)" style="fill: #b36139"/>
   </g>
   <g id="patch_15">
    <path d="M 159.968652 135.05686 
L 172.029538 135.05686 
L 172.029538 145.179318 
L 193.203762 145.179318 
L 193.203762 147.62843 
L 159.968652 147.62843 
L 159.968652 135.05686 
z
" clip-path="url(#pa09f5656ca)" style="fill: #de1a76"/>
   </g>
   <g id="patch_16">
    <path d="M 159.968652 122.48529 
L 169.531397 122.48529 
L 169.531397 127.275742 
L 183.641017 127.275742 
L 183.641017 122.48529 
L 193.203762 122.48529 
L 193.203762 135.05686 
L 183.641017 135.05686 
L 183.641017 129.727549 
L 169.531397 129.727549 
L 169.531397 135.05686 
L 159.968652 135.05686 
L 159.968652 122.48529 
z
" clip-path="url(#pa09f5656ca)" style="fill: #0f73ee"/>
   </g>
   <g id="patch_17">
    <path d="M 160.314538 109.91372 
L 192.857876 109.91372 
L 192.857876 112.365526 
L 172.375424 112.365526 
L 172.375424 114.704172 
L 191.644769 114.704172 
L 191.644769 117.155979 
L 172.375424 117.155979 
L 172.375424 122.48529 
L 160.314538 122.48529 
L 160.314538 109.91372 
z
" clip-path="url(#pa09f5656ca)" style="fill: #da06b6"/>
   </g>
   <g id="patch_18">
    <path d="M 173.453648 102.916642 
Q 176.436286 102.916642 177.730341 102.539441 
Q 179.024395 102.159545 179.024395 101.291983 
Q 179.024395 100.432504 177.730341 100.063386 
Q 176.436286 99.691573 173.453648 99.691573 
L 169.461016 99.691573 
L 169.461016 102.916642 
L 173.453648 102.916642 
z
M 169.461016 105.155599 
L 169.461016 109.91372 
L 159.968652 109.91372 
L 159.968652 97.34215 
L 174.463642 97.34215 
Q 181.738754 97.34215 185.123811 98.177381 
Q 188.516759 99.009917 188.516759 100.812399 
Q 188.516759 102.057162 186.74927 102.857367 
Q 184.989671 103.657572 181.438912 104.037467 
Q 183.387884 104.188348 184.926547 104.724512 
Q 186.4731 105.257982 188.051215 106.343782 
L 193.203762 109.91372 
L 183.095933 109.91372 
L 178.606195 106.791035 
Q 177.249015 105.848032 175.852383 105.503163 
Q 174.463642 105.155599 172.143812 105.155599 
L 169.461016 105.155599 
z
" clip-path="url(#pa09f5656ca)" style="fill: #0a7dbc"/>
   </g>
   <g id="patch_19">
    <path d="M 159.968652 84.77058 
L 169.157182 84.77058 
L 176.579225 89.251189 
L 183.994285 84.77058 
L 193.203762 84.77058 
L 180.789471 92.04517 
L 180.789471 97.34215 
L 172.389925 97.34215 
L 172.389925 92.04517 
L 159.968652 84.77058 
z
" clip-path="url(#pa09f5656ca)" style="fill: #8607b4"/>
   </g>
   <g id="patch_20">
    <path d="M 159.968652 59.62744 
L 165.715515 59.62744 
L 169.732836 77.900133 
L 173.720252 59.62744 
L 179.49702 59.62744 
L 183.484436 77.900133 
L 187.506742 59.62744 
L 193.203762 59.62744 
L 187.721065 84.77058 
L 180.807883 84.77058 
L 176.586207 65.657267 
L 172.414373 84.77058 
L 165.496207 84.77058 
L 159.968652 59.62744 
z
" clip-path="url(#pa09f5656ca)" style="fill: #4600ff"/>
   </g>
   <g id="patch_21">
    <path d="M 205.54009 145.629043 
L 217.600976 145.629043 
L 217.600976 160.2 
L 205.54009 160.2 
L 205.54009 145.629043 
z
" clip-path="url(#pa09f5656ca)" style="fill: #ea0063"/>
   </g>
   <g id="patch_22">
    <path d="M 194.952978 131.058086 
L 204.515723 131.058086 
L 204.515723 136.610414 
L 218.625343 136.610414 
L 218.625343 131.058086 
L 228.188088 131.058086 
L 228.188088 145.629043 
L 218.625343 145.629043 
L 218.625343 139.452156 
L 204.515723 139.452156 
L 204.515723 145.629043 
L 194.952978 145.629043 
L 194.952978 131.058086 
z
" clip-path="url(#pa09f5656ca)" style="fill: #0f73ee"/>
   </g>
   <g id="patch_23">
    <path d="M 194.952978 116.487129 
L 227.496316 116.487129 
L 227.496316 119.328872 
L 207.013864 119.328872 
L 207.013864 122.039457 
L 226.28321 122.039457 
L 226.28321 124.881199 
L 207.013864 124.881199 
L 207.013864 128.219466 
L 228.188088 128.219466 
L 228.188088 131.058086 
L 194.952978 131.058086 
L 194.952978 116.487129 
z
" clip-path="url(#pa09f5656ca)" style="fill: #028489"/>
   </g>
   <g id="patch_24">
    <path d="M 194.952978 101.916172 
L 200.699841 101.916172 
L 204.717162 112.505567 
L 208.704578 101.916172 
L 214.481346 101.916172 
L 218.468762 112.505567 
L 222.491068 101.916172 
L 228.188088 101.916172 
L 222.705391 116.487129 
L 215.792209 116.487129 
L 211.570533 105.410579 
L 207.398699 116.487129 
L 200.480533 116.487129 
L 194.952978 101.916172 
z
" clip-path="url(#pa09f5656ca)" style="fill: #4600ff"/>
   </g>
   <g id="patch_25">
    <path d="M 228.188088 99.827297 
Q 225.408028 100.862705 222.401879 101.386429 
Q 219.395731 101.916172 216.121624 101.916172 
Q 206.357921 101.916172 200.65545 97.991254 
Q 194.952978 94.066336 194.952978 87.354245 
Q 194.952978 80.618074 200.65545 76.699176 
Q 206.357921 72.774258 216.121624 72.774258 
Q 219.395731 72.774258 222.401879 73.304002 
Q 225.408028 73.827726 228.188088 74.863133 
L 228.188088 80.672253 
Q 225.382907 79.299735 222.661463 78.661635 
Q 219.940019 78.023535 216.933871 78.023535 
Q 211.541225 78.023535 208.45134 80.509718 
Q 205.369828 82.989881 205.369828 87.354245 
Q 205.369828 91.70055 208.45134 94.186733 
Q 211.541225 96.666895 216.933871 96.666895 
Q 219.940019 96.666895 222.661463 96.028795 
Q 225.382907 95.384675 228.188088 94.012158 
L 228.188088 99.827297 
z
" clip-path="url(#pa09f5656ca)" style="fill: #ef0300"/>
   </g>
   <g id="patch_26">
    <path d="M 194.952978 43.632344 
L 207.013864 43.632344 
L 207.013864 67.097019 
L 228.188088 67.097019 
L 228.188088 72.774258 
L 194.952978 72.774258 
L 194.952978 43.632344 
z
" clip-path="url(#pa09f5656ca)" style="fill: #de1a76"/>
   </g>
   <g id="patch_27">
    <path d="M 263.172414 159.243459 
Q 259.820599 159.721729 256.215535 159.961957 
Q 252.610472 160.2 248.767057 160.2 
Q 240.082131 160.2 235.009718 158.776108 
Q 229.937304 157.352215 229.937304 154.917184 
Q 229.937304 152.453763 235.099099 151.04079 
Q 240.268343 149.627817 249.258657 149.627817 
Q 252.722199 149.627817 255.895251 149.819999 
Q 259.075751 150.009997 261.891276 150.385625 
L 261.891276 152.493073 
Q 258.986369 152.010435 256.111256 151.772391 
Q 253.236144 151.532164 250.346134 151.532164 
Q 244.998127 151.532164 242.100669 152.410085 
Q 239.203211 153.285823 239.203211 154.917184 
Q 239.203211 156.533259 241.99639 157.415548 
Q 244.78957 158.295653 249.92902 158.295653 
Q 251.329333 158.295653 252.528538 158.245424 
Q 253.727743 158.19301 254.681149 158.083816 
L 254.681149 156.105217 
L 249.206517 156.105217 
L 249.206517 154.342823 
L 263.172414 154.342823 
L 263.172414 159.243459 
z
" clip-path="url(#pa09f5656ca)" style="fill: #797c00"/>
   </g>
   <g id="patch_28">
    <path d="M 230.28319 139.055634 
L 262.826528 139.055634 
L 262.826528 141.117504 
L 242.344076 141.117504 
L 242.344076 143.084211 
L 261.613421 143.084211 
L 261.613421 145.146081 
L 242.344076 145.146081 
L 242.344076 149.627817 
L 230.28319 149.627817 
L 230.28319 139.055634 
z
" clip-path="url(#pa09f5656ca)" style="fill: #da06b6"/>
   </g>
   <g id="patch_29">
    <path d="M 229.937304 128.483451 
L 262.480642 128.483451 
L 262.480642 130.545321 
L 241.99819 130.545321 
L 241.99819 132.512028 
L 261.267536 132.512028 
L 261.267536 134.573898 
L 241.99819 134.573898 
L 241.99819 136.996029 
L 263.172414 136.996029 
L 263.172414 139.055634 
L 229.937304 139.055634 
L 229.937304 128.483451 
z
" clip-path="url(#pa09f5656ca)" style="fill: #028489"/>
   </g>
   <g id="patch_30">
    <path d="M 243.4223 122.59919 
Q 246.404938 122.59919 247.698993 122.281979 
Q 248.993047 121.962503 248.993047 121.232918 
Q 248.993047 120.510131 247.698993 120.199717 
Q 246.404938 119.887038 243.4223 119.887038 
L 239.429668 119.887038 
L 239.429668 122.59919 
L 243.4223 122.59919 
z
M 239.429668 124.482063 
L 239.429668 128.483451 
L 229.937304 128.483451 
L 229.937304 117.911268 
L 244.432294 117.911268 
Q 251.707406 117.911268 255.092463 118.613663 
Q 258.485411 119.313793 258.485411 120.829607 
Q 258.485411 121.876403 256.717922 122.549343 
Q 254.958323 123.222283 251.407564 123.54176 
Q 253.356536 123.668644 254.895199 124.119536 
Q 256.441752 124.568163 258.019867 125.481277 
L 263.172414 128.483451 
L 253.064585 128.483451 
L 248.574847 125.857398 
Q 247.217667 125.064371 245.821035 124.77435 
Q 244.432294 124.482063 242.112464 124.482063 
L 239.429668 124.482063 
z
" clip-path="url(#pa09f5656ca)" style="fill: #0a7dbc"/>
   </g>
   <g id="patch_31">
    <path d="M 260.401317 107.843562 
L 260.401317 110.001239 
Q 256.935189 109.625611 253.631536 109.435613 
Q 250.33691 109.243432 247.403338 109.243432 
Q 243.512971 109.243432 241.644511 109.503314 
Q 239.785078 109.761012 239.785078 110.306983 
Q 239.785078 110.717553 241.039744 110.946861 
Q 242.29441 111.173985 245.598063 111.337776 
L 250.219567 111.562717 
Q 257.242086 111.905586 260.202737 112.602245 
Q 263.172414 113.296721 263.172414 114.580844 
Q 263.172414 116.264619 259.038334 117.087943 
Q 254.904255 117.911268 246.410437 117.911268 
Q 242.411753 117.911268 238.376964 117.725638 
Q 234.342175 117.542191 230.307385 117.179667 
L 230.307385 114.963024 
Q 234.342175 115.480605 238.106173 115.744855 
Q 241.870171 116.006921 245.372404 116.006921 
Q 248.928795 116.006921 250.815308 115.720832 
Q 252.70182 115.432559 252.70182 114.899691 
Q 252.70182 114.423605 251.420075 114.163723 
Q 250.138329 113.90384 246.30212 113.698555 
L 242.09583 113.473615 
Q 235.777368 113.146033 232.852823 112.429719 
Q 229.937304 111.713405 229.937304 110.499165 
Q 229.937304 108.976998 233.999172 108.158041 
Q 238.061041 107.339085 245.679301 107.339085 
Q 249.154455 107.339085 252.819163 107.46575 
Q 256.483871 107.592415 260.401317 107.843562 
z
" clip-path="url(#pa09f5656ca)" style="fill: #6e5842"/>
   </g>
   <g id="patch_32">
    <path d="M 263.172414 106.581277 
Q 260.392354 106.956905 257.386205 107.146903 
Q 254.380057 107.339085 251.10595 107.339085 
Q 241.342247 107.339085 235.639776 105.915192 
Q 229.937304 104.4913 229.937304 102.056269 
Q 229.937304 99.612503 235.639776 98.190794 
Q 241.342247 96.766902 251.10595 96.766902 
Q 254.380057 96.766902 257.386205 96.959083 
Q 260.392354 97.149081 263.172414 97.524709 
L 263.172414 99.632158 
Q 260.367233 99.134232 257.645789 98.90274 
Q 254.924345 98.671249 251.918197 98.671249 
Q 246.525551 98.671249 243.435666 99.573193 
Q 240.354154 100.472953 240.354154 102.056269 
Q 240.354154 103.633033 243.435666 104.534977 
Q 246.525551 105.434738 251.918197 105.434738 
Q 254.924345 105.434738 257.645789 105.203246 
Q 260.367233 104.96957 263.172414 104.471645 
L 263.172414 106.581277 
z
" clip-path="url(#pa09f5656ca)" style="fill: #ef0300"/>
   </g>
   <g id="patch_33">
    <path d="M 229.937304 86.194718 
L 238.159443 86.194718 
L 246.565052 93.998104 
L 254.95707 86.194718 
L 263.172414 86.194718 
L 251.430384 96.766902 
L 241.679334 96.766902 
L 229.937304 86.194718 
z
" clip-path="url(#pa09f5656ca)" style="fill: #da3952"/>
   </g>
   <g id="patch_34">
    <path d="M 229.937304 75.622535 
L 239.125834 75.622535 
L 246.547877 79.390547 
L 253.962937 75.622535 
L 263.172414 75.622535 
L 250.758123 81.740172 
L 250.758123 86.194718 
L 242.358577 86.194718 
L 242.358577 81.740172 
L 229.937304 75.622535 
z
" clip-path="url(#pa09f5656ca)" style="fill: #8607b4"/>
   </g>
   <g id="patch_35">
    <path d="M 264.92163 144.874387 
L 270.668493 144.874387 
L 274.685814 156.012225 
L 278.67323 144.874387 
L 284.449998 144.874387 
L 288.437414 156.012225 
L 292.45972 144.874387 
L 298.15674 144.874387 
L 292.674043 160.2 
L 285.760861 160.2 
L 281.539185 148.549775 
L 277.367351 160.2 
L 270.449185 160.2 
L 264.92163 144.874387 
z
" clip-path="url(#pa09f5656ca)" style="fill: #4600ff"/>
   </g>
   <g id="patch_36">
    <path d="M 264.92163 129.548774 
L 275.597247 129.548774 
L 289.086838 140.059267 
L 289.086838 129.548774 
L 298.15674 129.548774 
L 298.15674 144.874387 
L 287.473174 144.874387 
L 273.983583 134.363894 
L 273.983583 144.874387 
L 264.92163 144.874387 
L 264.92163 129.548774 
z
" clip-path="url(#pa09f5656ca)" style="fill: #0f5e46"/>
   </g>
   <g id="patch_37">
    <path d="M 295.385643 114.954459 
L 295.385643 118.082265 
Q 291.919515 117.537748 288.615862 117.262324 
Q 285.321236 116.983734 282.387664 116.983734 
Q 278.497297 116.983734 276.628837 117.360464 
Q 274.769404 117.734027 274.769404 118.525476 
Q 274.769404 119.120646 276.02407 119.453054 
Q 277.278736 119.782297 280.582389 120.019731 
L 285.203893 120.345808 
Q 292.226412 120.842838 295.187063 121.852727 
Q 298.15674 122.859449 298.15674 124.720937 
Q 298.15674 127.161765 294.02266 128.355269 
Q 289.888581 129.548774 281.394763 129.548774 
Q 277.396079 129.548774 273.36129 129.279681 
Q 269.326501 129.013755 265.291711 128.488233 
L 265.291711 125.274951 
Q 269.326501 126.025244 273.090499 126.408305 
Q 276.854497 126.788201 280.35673 126.788201 
Q 283.913121 126.788201 285.799634 126.373482 
Q 287.686146 125.955597 287.686146 125.183143 
Q 287.686146 124.492999 286.404401 124.11627 
Q 285.122656 123.73954 281.286446 123.441956 
L 277.080156 123.115879 
Q 270.761694 122.641009 267.837149 121.602629 
Q 264.92163 120.564248 264.92163 118.804066 
Q 264.92163 116.597507 268.983498 115.410334 
Q 273.045367 114.223161 280.663627 114.223161 
Q 284.138781 114.223161 287.803489 114.406777 
Q 291.468197 114.590393 295.385643 114.954459 
z
" clip-path="url(#pa09f5656ca)" style="fill: #6e5842"/>
   </g>
   <g id="patch_38">
    <path d="M 275.508742 98.897548 
L 287.569628 98.897548 
L 287.569628 114.223161 
L 275.508742 114.223161 
L 275.508742 98.897548 
z
" clip-path="url(#pa09f5656ca)" style="fill: #ea0063"/>
   </g>
   <g id="patch_39">
    <path d="M 287.94362 96.105698 
L 275.161931 96.105698 
L 273.143769 98.897548 
L 264.92163 98.897548 
L 276.66366 83.571935 
L 286.41471 83.571935 
L 298.15674 98.897548 
L 289.941396 98.897548 
L 287.94362 96.105698 
z
M 277.200478 93.261296 
L 285.884687 93.261296 
L 281.549378 87.16521 
L 277.200478 93.261296 
z
" clip-path="url(#pa09f5656ca)" style="fill: #b36139"/>
   </g>
   <g id="patch_40">
    <path d="M 264.92163 37.595096 
L 274.725667 37.595096 
L 281.526378 62.199503 
L 288.371914 37.595096 
L 298.15674 37.595096 
L 298.15674 83.571935 
L 290.875753 83.571935 
L 290.875753 49.941641 
L 283.991795 74.733267 
L 279.105786 74.733267 
L 272.221828 49.941641 
L 272.221828 83.571935 
L 264.92163 83.571935 
L 264.92163 37.595096 
z
" clip-path="url(#pa09f5656ca)" style="fill: #a10c56"/>
   </g>
   <g id="patch_41">
    <path d="M 299.905956 145.629043 
L 305.652819 145.629043 
L 309.67014 156.218438 
L 313.657556 145.629043 
L 319.434324 145.629043 
L 323.42174 156.218438 
L 327.444046 145.629043 
L 333.141066 145.629043 
L 327.658369 160.2 
L 320.745187 160.2 
L 316.523511 149.12345 
L 312.351677 160.2 
L 305.433511 160.2 
L 299.905956 145.629043 
z
" clip-path="url(#pa09f5656ca)" style="fill: #4600ff"/>
   </g>
   <g id="patch_42">
    <path d="M 299.905956 131.058086 
L 309.468701 131.058086 
L 309.468701 136.610414 
L 323.578321 136.610414 
L 323.578321 131.058086 
L 333.141066 131.058086 
L 333.141066 145.629043 
L 323.578321 145.629043 
L 323.578321 139.452156 
L 309.468701 139.452156 
L 309.468701 145.629043 
L 299.905956 145.629043 
L 299.905956 131.058086 
z
" clip-path="url(#pa09f5656ca)" style="fill: #0f73ee"/>
   </g>
   <g id="patch_43">
    <path d="M 333.141066 130.013649 
Q 330.361006 130.531352 327.354858 130.793214 
Q 324.348709 131.058086 321.074602 131.058086 
Q 311.310899 131.058086 305.608428 129.095627 
Q 299.905956 127.133168 299.905956 123.777122 
Q 299.905956 120.409037 305.608428 118.449588 
Q 311.310899 116.487129 321.074602 116.487129 
Q 324.348709 116.487129 327.354858 116.752001 
Q 330.361006 117.013863 333.141066 117.531567 
L 333.141066 120.436126 
Q 330.335885 119.749868 327.614441 119.430818 
Q 324.892998 119.111768 321.886849 119.111768 
Q 316.494203 119.111768 313.404318 120.354859 
Q 310.322806 121.59494 310.322806 123.777122 
Q 310.322806 125.950275 313.404318 127.193366 
Q 316.494203 128.433448 321.886849 128.433448 
Q 324.892998 128.433448 327.614441 128.114398 
Q 330.335885 127.792338 333.141066 127.106079 
L 333.141066 130.013649 
z
" clip-path="url(#pa09f5656ca)" style="fill: #ef0300"/>
   </g>
   <g id="patch_44">
    <path d="M 322.927946 113.832754 
L 310.146257 113.832754 
L 308.128095 116.487129 
L 299.905956 116.487129 
L 311.647986 101.916172 
L 321.399036 101.916172 
L 333.141066 116.487129 
L 324.925722 116.487129 
L 322.927946 113.832754 
z
M 312.184804 111.128415 
L 320.869013 111.128415 
L 316.533704 105.332509 
L 312.184804 111.128415 
z
" clip-path="url(#pa09f5656ca)" style="fill: #b36139"/>
   </g>
   <g id="patch_45">
    <path d="M 300.251842 72.774258 
L 332.79518 72.774258 
L 332.79518 78.457743 
L 312.312728 78.457743 
L 312.312728 83.878914 
L 331.582074 83.878914 
L 331.582074 89.562399 
L 312.312728 89.562399 
L 312.312728 101.916172 
L 300.251842 101.916172 
L 300.251842 72.774258 
z
" clip-path="url(#pa09f5656ca)" style="fill: #da06b6"/>
   </g>
   <g id="patch_46">
    <path d="M 299.905956 43.632344 
L 333.141066 43.632344 
L 333.141066 49.31583 
L 321.184155 49.31583 
L 321.184155 72.774258 
L 311.886054 72.774258 
L 311.886054 49.31583 
L 299.905956 49.31583 
L 299.905956 43.632344 
z
" clip-path="url(#pa09f5656ca)" style="fill: #843f07"/>
   </g>
   <g id="patch_47">
    <path d="M 334.890282 145.629043 
L 344.078812 145.629043 
L 351.500855 150.82225 
L 358.915915 145.629043 
L 368.125392 145.629043 
L 355.711101 154.060587 
L 355.711101 160.2 
L 347.311555 160.2 
L 347.311555 154.060587 
L 334.890282 145.629043 
z
" clip-path="url(#pa09f5656ca)" style="fill: #8607b4"/>
   </g>
   <g id="patch_48">
    <path d="M 334.890282 131.058086 
L 340.637145 131.058086 
L 344.654466 141.647481 
L 348.641882 131.058086 
L 354.41865 131.058086 
L 358.406066 141.647481 
L 362.428372 131.058086 
L 368.125392 131.058086 
L 362.642695 145.629043 
L 355.729513 145.629043 
L 351.507837 134.552493 
L 347.336003 145.629043 
L 340.417837 145.629043 
L 334.890282 131.058086 
z
" clip-path="url(#pa09f5656ca)" style="fill: #4600ff"/>
   </g>
   <g id="patch_49">
    <path d="M 334.890282 116.487129 
L 343.648625 116.487129 
L 343.648625 121.805247 
L 356.272871 116.487129 
L 366.443615 116.487129 
L 350.084515 123.388504 
L 368.125392 131.058086 
L 357.161082 131.058086 
L 343.648625 125.318391 
L 343.648625 131.058086 
L 334.890282 131.058086 
L 334.890282 116.487129 
z
" clip-path="url(#pa09f5656ca)" style="fill: #0a81a2"/>
   </g>
   <g id="patch_50">
    <path d="M 348.375278 108.377233 
Q 351.357916 108.377233 352.651971 107.940042 
Q 353.946025 107.499728 353.946025 106.494188 
Q 353.946025 105.498017 352.651971 105.070194 
Q 351.357916 104.639249 348.375278 104.639249 
L 344.382646 104.639249 
L 344.382646 108.377233 
L 348.375278 108.377233 
z
M 344.382646 110.972275 
L 344.382646 116.487129 
L 334.890282 116.487129 
L 334.890282 101.916172 
L 349.385272 101.916172 
Q 356.660384 101.916172 360.045441 102.884238 
Q 363.438389 103.849182 363.438389 105.938331 
Q 363.438389 107.381062 361.6709 108.308532 
Q 359.911301 109.236001 356.360542 109.676315 
Q 358.309514 109.851192 359.848177 110.472628 
Q 361.39473 111.090941 362.972845 112.349427 
L 368.125392 116.487129 
L 358.017563 116.487129 
L 353.527825 112.867811 
Q 352.170645 111.774833 350.774013 111.375115 
Q 349.385272 110.972275 347.065442 110.972275 
L 344.382646 110.972275 
z
" clip-path="url(#pa09f5656ca)" style="fill: #0a7dbc"/>
   </g>
   <g id="patch_51">
    <path d="M 334.890282 72.774258 
L 345.565899 72.774258 
L 359.05549 92.76014 
L 359.05549 72.774258 
L 368.125392 72.774258 
L 368.125392 101.916172 
L 357.441826 101.916172 
L 343.952235 81.93029 
L 343.952235 101.916172 
L 334.890282 101.916172 
L 334.890282 72.774258 
z
" clip-path="url(#pa09f5656ca)" style="fill: #0f5e46"/>
   </g>
   <g id="patch_52">
    <path d="M 357.912272 67.465508 
L 345.130583 67.465508 
L 343.112421 72.774258 
L 334.890282 72.774258 
L 346.632312 43.632344 
L 356.383362 43.632344 
L 368.125392 72.774258 
L 359.910048 72.774258 
L 357.912272 67.465508 
z
M 347.16913 62.056829 
L 355.853339 62.056829 
L 351.51803 50.465018 
L 347.16913 62.056829 
z
" clip-path="url(#pa09f5656ca)" style="fill: #b36139"/>
   </g>
   <g id="patch_53">
    <path d="M 369.874608 142.875 
L 379.678645 142.875 
L 386.479356 152.146437 
L 393.324892 142.875 
L 403.109718 142.875 
L 403.109718 160.2 
L 395.828731 160.2 
L 395.828731 147.527427 
L 388.944773 156.869412 
L 384.058764 156.869412 
L 377.174806 147.527427 
L 377.174806 160.2 
L 369.874608 160.2 
L 369.874608 142.875 
z
" clip-path="url(#pa09f5656ca)" style="fill: #a10c56"/>
   </g>
   <g id="patch_54">
    <path d="M 369.874608 125.55 
L 402.417946 125.55 
L 402.417946 128.928858 
L 381.935494 128.928858 
L 381.935494 132.151768 
L 401.20484 132.151768 
L 401.20484 135.530626 
L 381.935494 135.530626 
L 381.935494 139.499855 
L 403.109718 139.499855 
L 403.109718 142.875 
L 369.874608 142.875 
L 369.874608 125.55 
z
" clip-path="url(#pa09f5656ca)" style="fill: #028489"/>
   </g>
   <g id="patch_55">
    <path d="M 392.896598 122.393924 
L 380.114909 122.393924 
L 378.096747 125.55 
L 369.874608 125.55 
L 381.616638 108.225 
L 391.367688 108.225 
L 403.109718 125.55 
L 394.894374 125.55 
L 392.896598 122.393924 
z
M 382.153456 119.17844 
L 390.837665 119.17844 
L 386.502356 112.287055 
L 382.153456 119.17844 
z
" clip-path="url(#pa09f5656ca)" style="fill: #b36139"/>
   </g>
   <g id="patch_56">
    <path d="M 403.109718 105.741309 
Q 400.329658 106.972418 397.32351 107.59513 
Q 394.317361 108.225 391.043255 108.225 
Q 381.279551 108.225 375.57708 103.558237 
Q 369.874608 98.891474 369.874608 90.910736 
Q 369.874608 82.901369 375.57708 78.241763 
Q 381.279551 73.575 391.043255 73.575 
Q 394.317361 73.575 397.32351 74.20487 
Q 400.329658 74.827582 403.109718 76.058691 
L 403.109718 82.965787 
Q 400.304537 81.333851 397.583093 80.575145 
Q 394.86165 79.816438 391.855501 79.816438 
Q 386.462855 79.816438 383.37297 82.772532 
Q 380.291458 85.721468 380.291458 90.910736 
Q 380.291458 96.078532 383.37297 99.034626 
Q 386.462855 101.983562 391.855501 101.983562 
Q 394.86165 101.983562 397.583093 101.224855 
Q 400.304537 100.458991 403.109718 98.827055 
L 403.109718 105.741309 
z
" clip-path="url(#pa09f5656ca)" style="fill: #ef0300"/>
   </g>
   <g id="patch_57">
    <path d="M 369.874608 21.6 
L 378.096747 21.6 
L 386.502356 59.96303 
L 394.894374 21.6 
L 403.109718 21.6 
L 391.367688 73.575 
L 381.616638 73.575 
L 369.874608 21.6 
z
" clip-path="url(#pa09f5656ca)" style="fill: #da3952"/>
   </g>
   <g id="patch_58">
    <path d="M 404.858934 145.629043 
L 416.91982 145.629043 
L 416.91982 157.36138 
L 438.094044 157.36138 
L 438.094044 160.2 
L 404.858934 160.2 
L 404.858934 145.629043 
z
" clip-path="url(#pa09f5656ca)" style="fill: #de1a76"/>
   </g>
   <g id="patch_59">
    <path d="M 404.858934 131.058086 
L 410.605797 131.058086 
L 414.623118 141.647481 
L 418.610534 131.058086 
L 424.387302 131.058086 
L 428.374718 141.647481 
L 432.397024 131.058086 
L 438.094044 131.058086 
L 432.611347 145.629043 
L 425.698165 145.629043 
L 421.476489 134.552493 
L 417.304655 145.629043 
L 410.386489 145.629043 
L 404.858934 131.058086 
z
" clip-path="url(#pa09f5656ca)" style="fill: #4600ff"/>
   </g>
   <g id="patch_60">
    <path d="M 404.858934 116.487129 
L 437.402272 116.487129 
L 437.402272 119.328872 
L 416.91982 119.328872 
L 416.91982 122.039457 
L 436.189166 122.039457 
L 436.189166 124.881199 
L 416.91982 124.881199 
L 416.91982 128.219466 
L 438.094044 128.219466 
L 438.094044 131.058086 
L 404.858934 131.058086 
L 404.858934 116.487129 
z
" clip-path="url(#pa09f5656ca)" style="fill: #028489"/>
   </g>
   <g id="patch_61">
    <path d="M 404.858934 101.916172 
L 414.047465 101.916172 
L 421.469507 107.109379 
L 428.884567 101.916172 
L 438.094044 101.916172 
L 425.679753 110.347716 
L 425.679753 116.487129 
L 417.280207 116.487129 
L 417.280207 110.347716 
L 404.858934 101.916172 
z
" clip-path="url(#pa09f5656ca)" style="fill: #8607b4"/>
   </g>
   <g id="patch_62">
    <path d="M 404.858934 72.774258 
L 438.094044 72.774258 
L 438.094044 78.457743 
L 426.137133 78.457743 
L 426.137133 101.916172 
L 416.839032 101.916172 
L 416.839032 78.457743 
L 404.858934 78.457743 
L 404.858934 72.774258 
z
" clip-path="url(#pa09f5656ca)" style="fill: #843f07"/>
   </g>
   <g id="patch_63">
    <path d="M 404.858934 43.632344 
L 422.134267 43.632344 
Q 429.845851 43.632344 433.96562 46.105597 
Q 438.094044 48.572605 438.094044 53.138129 
Q 438.094044 57.728637 433.96562 60.195644 
Q 429.845851 62.662651 422.134267 62.662651 
L 415.270871 62.662651 
L 415.270871 72.774258 
L 404.858934 72.774258 
L 404.858934 43.632344 
z
M 415.270871 49.078497 
L 415.270871 57.216498 
L 421.02643 57.216498 
Q 424.055672 57.216498 425.708773 56.154748 
Q 427.361873 55.092998 427.361873 53.138129 
Q 427.361873 51.189506 425.708773 50.134002 
Q 424.055672 49.078497 421.02643 49.078497 
L 415.270871 49.078497 
z
" clip-path="url(#pa09f5656ca)" style="fill: #1c8701"/>
   </g>
   <g id="patch_64">
    <path d="M 439.84326 149.627817 
L 448.065399 149.627817 
L 456.471008 157.431203 
L 464.863026 149.627817 
L 473.07837 149.627817 
L 461.33634 160.2 
L 451.58529 160.2 
L 439.84326 149.627817 
z
" clip-path="url(#pa09f5656ca)" style="fill: #da3952"/>
   </g>
   <g id="patch_65">
    <path d="M 453.328256 143.743556 
Q 456.310894 143.743556 457.604949 143.426346 
Q 458.899003 143.106869 458.899003 142.377284 
Q 458.899003 141.654497 457.604949 141.344083 
Q 456.310894 141.031404 453.328256 141.031404 
L 449.335624 141.031404 
L 449.335624 143.743556 
L 453.328256 143.743556 
z
M 449.335624 145.626429 
L 449.335624 149.627817 
L 439.84326 149.627817 
L 439.84326 139.055634 
L 454.33825 139.055634 
Q 461.613362 139.055634 464.998419 139.758029 
Q 468.391367 140.458159 468.391367 141.973973 
Q 468.391367 143.020769 466.623878 143.693709 
Q 464.864279 144.366649 461.31352 144.686126 
Q 463.262492 144.81301 464.801155 145.263903 
Q 466.347708 145.712529 467.925823 146.625643 
L 473.07837 149.627817 
L 462.970541 149.627817 
L 458.480803 147.001765 
Q 457.123624 146.208738 455.726991 145.918716 
Q 454.33825 145.626429 452.01842 145.626429 
L 449.335624 145.626429 
z
" clip-path="url(#pa09f5656ca)" style="fill: #0a7dbc"/>
   </g>
   <g id="patch_66">
    <path d="M 462.86525 137.129711 
L 450.083561 137.129711 
L 448.065399 139.055634 
L 439.84326 139.055634 
L 451.58529 128.483451 
L 461.33634 128.483451 
L 473.07837 139.055634 
L 464.863026 139.055634 
L 462.86525 137.129711 
z
M 452.122108 135.167536 
L 460.806318 135.167536 
L 456.471008 130.962227 
L 452.122108 135.167536 
z
" clip-path="url(#pa09f5656ca)" style="fill: #b36139"/>
   </g>
   <g id="patch_67">
    <path d="M 450.430372 117.911268 
L 462.491258 117.911268 
L 462.491258 128.483451 
L 450.430372 128.483451 
L 450.430372 117.911268 
z
" clip-path="url(#pa09f5656ca)" style="fill: #ea0063"/>
   </g>
   <g id="patch_68">
    <path d="M 473.07837 116.954726 
Q 469.726555 117.432997 466.121491 117.673224 
Q 462.516428 117.911268 458.673013 117.911268 
Q 449.988087 117.911268 444.915674 116.487375 
Q 439.84326 115.063483 439.84326 112.628452 
Q 439.84326 110.165031 445.005056 108.752058 
Q 450.174299 107.339085 459.164613 107.339085 
Q 462.628155 107.339085 465.801207 107.531266 
Q 468.981707 107.721264 471.797232 108.096892 
L 471.797232 110.204341 
Q 468.892325 109.721702 466.017213 109.483659 
Q 463.1421 109.243432 460.25209 109.243432 
Q 454.904083 109.243432 452.006625 110.121353 
Q 449.109167 110.997091 449.109167 112.628452 
Q 449.109167 114.244526 451.902346 115.126815 
Q 454.695526 116.006921 459.834976 116.006921 
Q 461.23529 116.006921 462.434495 115.956691 
Q 463.6337 115.904278 464.587105 115.795084 
L 464.587105 113.816485 
L 459.112473 113.816485 
L 459.112473 112.05409 
L 473.07837 112.05409 
L 473.07837 116.954726 
z
" clip-path="url(#pa09f5656ca)" style="fill: #797c00"/>
   </g>
   <g id="patch_69">
    <path d="M 440.189146 96.766902 
L 472.732484 96.766902 
L 472.732484 98.828772 
L 452.250032 98.828772 
L 452.250032 100.795479 
L 471.519378 100.795479 
L 471.519378 102.857349 
L 452.250032 102.857349 
L 452.250032 107.339085 
L 440.189146 107.339085 
L 440.189146 96.766902 
z
" clip-path="url(#pa09f5656ca)" style="fill: #da06b6"/>
   </g>
   <g id="patch_70">
    <path d="M 439.84326 86.194718 
L 450.518877 86.194718 
L 464.008468 93.445251 
L 464.008468 86.194718 
L 473.07837 86.194718 
L 473.07837 96.766902 
L 462.394804 96.766902 
L 448.905213 89.516369 
L 448.905213 96.766902 
L 439.84326 96.766902 
L 439.84326 86.194718 
z
" clip-path="url(#pa09f5656ca)" style="fill: #0f5e46"/>
   </g>
   <g id="patch_71">
    <path d="M 439.84326 75.622535 
L 451.904146 75.622535 
L 451.904146 84.135114 
L 473.07837 84.135114 
L 473.07837 86.194718 
L 439.84326 86.194718 
L 439.84326 75.622535 
z
" clip-path="url(#pa09f5656ca)" style="fill: #de1a76"/>
   </g>
   <g id="patch_72">
    <path d="M 485.414698 147.62843 
L 497.475584 147.62843 
L 497.475584 160.2 
L 485.414698 160.2 
L 485.414698 147.62843 
z
" clip-path="url(#pa09f5656ca)" style="fill: #ea0063"/>
   </g>
   <g id="patch_73">
    <path d="M 474.827586 135.05686 
L 484.631623 135.05686 
L 491.432334 141.784509 
L 498.27787 135.05686 
L 508.062696 135.05686 
L 508.062696 147.62843 
L 500.781709 147.62843 
L 500.781709 138.432809 
L 493.897751 145.211649 
L 489.011742 145.211649 
L 482.127784 138.432809 
L 482.127784 147.62843 
L 474.827586 147.62843 
L 474.827586 135.05686 
z
" clip-path="url(#pa09f5656ca)" style="fill: #a10c56"/>
   </g>
   <g id="patch_74">
    <path d="M 474.827586 122.48529 
L 485.503203 122.48529 
L 498.992794 131.107027 
L 498.992794 122.48529 
L 508.062696 122.48529 
L 508.062696 135.05686 
L 497.37913 135.05686 
L 483.889539 126.435123 
L 483.889539 135.05686 
L 474.827586 135.05686 
L 474.827586 122.48529 
z
" clip-path="url(#pa09f5656ca)" style="fill: #0f5e46"/>
   </g>
   <g id="patch_75">
    <path d="M 474.827586 109.91372 
L 492.102919 109.91372 
Q 499.814503 109.91372 503.934272 110.98066 
Q 508.062696 112.044906 508.062696 114.014434 
Q 508.062696 115.994739 503.934272 117.058984 
Q 499.814503 118.12323 492.102919 118.12323 
L 485.239523 118.12323 
L 485.239523 122.48529 
L 474.827586 122.48529 
L 474.827586 109.91372 
z
M 485.239523 112.263143 
L 485.239523 115.773807 
L 490.995082 115.773807 
Q 494.024324 115.773807 495.677425 115.315777 
Q 497.330525 114.857747 497.330525 114.014434 
Q 497.330525 113.173814 495.677425 112.718479 
Q 494.024324 112.263143 490.995082 112.263143 
L 485.239523 112.263143 
z
" clip-path="url(#pa09f5656ca)" style="fill: #1c8701"/>
   </g>
   <g id="patch_76">
    <path d="M 483.935066 99.793956 
L 483.935066 107.464608 
L 487.198012 107.464608 
Q 492.777574 107.464608 495.722553 106.478497 
Q 498.675102 105.492386 498.675102 103.614463 
Q 498.675102 101.747319 495.737694 100.771985 
Q 492.807856 99.793956 487.198012 99.793956 
L 483.935066 99.793956 
z
M 474.827586 97.34215 
L 484.427158 97.34215 
Q 492.474748 97.34215 496.411481 97.751682 
Q 500.348214 98.158521 503.164492 99.136549 
Q 505.647662 99.987945 506.851394 101.100688 
Q 508.062696 102.210737 508.062696 103.614463 
Q 508.062696 105.039744 506.851394 106.155182 
Q 505.647662 107.270619 503.164492 108.119321 
Q 500.325502 109.097349 496.350916 109.506882 
Q 492.37633 109.91372 484.427158 109.91372 
L 474.827586 109.91372 
L 474.827586 97.34215 
z
" clip-path="url(#pa09f5656ca)" style="fill: #068855"/>
   </g>
   <g id="patch_77">
    <path d="M 505.291599 85.370463 
L 505.291599 87.936195 
Q 501.825471 87.489529 498.521818 87.263599 
Q 495.227192 87.035073 492.29362 87.035073 
Q 488.403253 87.035073 486.534794 87.344103 
Q 484.67536 87.650537 484.67536 88.299761 
Q 484.67536 88.787977 485.930026 89.060651 
Q 487.184692 89.330728 490.488345 89.525495 
L 495.109849 89.792975 
Q 502.132368 90.200688 505.093019 91.029098 
Q 508.062696 91.85491 508.062696 93.381885 
Q 508.062696 95.384091 503.928617 96.36312 
Q 499.794537 97.34215 491.300719 97.34215 
Q 487.302035 97.34215 483.267246 97.121414 
Q 479.232457 96.903275 475.197668 96.47219 
L 475.197668 93.836341 
Q 479.232457 94.451805 482.996455 94.76603 
Q 486.760453 95.077657 490.262686 95.077657 
Q 493.819077 95.077657 495.70559 94.737464 
Q 497.592102 94.394674 497.592102 93.761031 
Q 497.592102 93.194908 496.310357 92.885878 
Q 495.028612 92.576847 491.192403 92.332739 
L 486.986112 92.065259 
Q 480.66765 91.675724 477.743105 90.823943 
Q 474.827586 89.972161 474.827586 88.528287 
Q 474.827586 86.718251 478.889455 85.744416 
Q 482.951323 84.77058 490.569583 84.77058 
Q 494.044737 84.77058 497.709445 84.9212 
Q 501.374153 85.07182 505.291599 85.370463 
z
" clip-path="url(#pa09f5656ca)" style="fill: #6e5842"/>
   </g>
   <g id="patch_78">
    <path d="M 474.827586 59.62744 
L 483.049725 59.62744 
L 491.455334 78.185728 
L 499.847352 59.62744 
L 508.062696 59.62744 
L 496.320666 84.77058 
L 486.569616 84.77058 
L 474.827586 59.62744 
z
" clip-path="url(#pa09f5656ca)" style="fill: #da3952"/>
   </g>
   <g id="patch_79">
    <path d="M 509.811912 149.627817 
L 518.570255 149.627817 
L 518.570255 153.48646 
L 531.194501 149.627817 
L 541.365245 149.627817 
L 525.006145 154.635216 
L 543.047022 160.2 
L 532.082712 160.2 
L 518.570255 156.035475 
L 518.570255 160.2 
L 509.811912 160.2 
L 509.811912 149.627817 
z
" clip-path="url(#pa09f5656ca)" style="fill: #0a81a2"/>
   </g>
   <g id="patch_80">
    <path d="M 509.811912 139.055634 
L 515.558775 139.055634 
L 519.576096 146.738933 
L 523.563512 139.055634 
L 529.340281 139.055634 
L 533.327696 146.738933 
L 537.350002 139.055634 
L 543.047022 139.055634 
L 537.564325 149.627817 
L 530.651143 149.627817 
L 526.429467 141.591055 
L 522.257633 149.627817 
L 515.339467 149.627817 
L 509.811912 139.055634 
z
" clip-path="url(#pa09f5656ca)" style="fill: #4600ff"/>
   </g>
   <g id="patch_81">
    <path d="M 509.811912 128.483451 
L 520.487529 128.483451 
L 533.97712 135.733984 
L 533.97712 128.483451 
L 543.047022 128.483451 
L 543.047022 139.055634 
L 532.363456 139.055634 
L 518.873865 131.805101 
L 518.873865 139.055634 
L 509.811912 139.055634 
L 509.811912 128.483451 
z
" clip-path="url(#pa09f5656ca)" style="fill: #0f5e46"/>
   </g>
   <g id="patch_82">
    <path d="M 510.157798 117.911268 
L 542.701136 117.911268 
L 542.701136 119.973138 
L 522.218684 119.973138 
L 522.218684 121.939845 
L 541.48803 121.939845 
L 541.48803 124.001715 
L 522.218684 124.001715 
L 522.218684 128.483451 
L 510.157798 128.483451 
L 510.157798 117.911268 
z
" clip-path="url(#pa09f5656ca)" style="fill: #da06b6"/>
   </g>
   <g id="patch_83">
    <path d="M 527.315737 116.330276 
L 526.664882 116.330276 
Q 518.681532 116.330276 514.24326 115.145463 
Q 509.811912 113.958789 509.811912 111.84398 
Q 509.811912 109.732892 514.236336 108.536918 
Q 518.66076 107.339085 526.429467 107.339085 
Q 534.281262 107.339085 538.664142 108.525758 
Q 543.047022 109.710572 543.047022 111.84398 
Q 543.047022 113.307792 540.720564 114.366127 
Q 538.394107 115.424461 534.025074 115.958278 
L 540.533617 117.911268 
L 532.59181 117.911268 
L 527.315737 116.330276 
z
M 526.429467 108.960996 
Q 522.621277 108.960996 520.523311 109.716152 
Q 518.425345 110.471308 518.425345 111.84398 
Q 518.425345 113.238973 520.474843 113.981109 
Q 522.531266 114.721385 526.429467 114.721385 
Q 530.258429 114.721385 532.356395 113.966229 
Q 534.454361 113.209213 534.454361 111.84398 
Q 534.454361 110.471308 532.356395 109.716152 
Q 530.258429 108.960996 526.429467 108.960996 
z
" clip-path="url(#pa09f5656ca)" style="fill: #19577b"/>
   </g>
   <g id="patch_84">
    <path d="M 509.811912 96.766902 
L 518.034051 96.766902 
L 526.43966 104.570287 
L 534.831678 96.766902 
L 543.047022 96.766902 
L 531.304992 107.339085 
L 521.553942 107.339085 
L 509.811912 96.766902 
z
" clip-path="url(#pa09f5656ca)" style="fill: #da3952"/>
   </g>
   <g id="patch_85">
    <path d="M 509.811912 86.194718 
L 519.374657 86.194718 
L 519.374657 90.223296 
L 533.484277 90.223296 
L 533.484277 86.194718 
L 543.047022 86.194718 
L 543.047022 96.766902 
L 533.484277 96.766902 
L 533.484277 92.285166 
L 519.374657 92.285166 
L 519.374657 96.766902 
L 509.811912 96.766902 
L 509.811912 86.194718 
z
" clip-path="url(#pa09f5656ca)" style="fill: #0f73ee"/>
   </g>
   <g id="patch_86">
    <path d="M 509.811912 75.622535 
L 521.872798 75.622535 
L 521.872798 84.135114 
L 543.047022 84.135114 
L 543.047022 86.194718 
L 509.811912 86.194718 
L 509.811912 75.622535 
z
" clip-path="url(#pa09f5656ca)" style="fill: #de1a76"/>
   </g>
   <g id="patch_87">
    <path d="M 544.796238 147.62843 
L 553.984769 147.62843 
L 561.406811 152.109039 
L 568.821871 147.62843 
L 578.031348 147.62843 
L 565.617057 154.90302 
L 565.617057 160.2 
L 557.217511 160.2 
L 557.217511 154.90302 
L 544.796238 147.62843 
z
" clip-path="url(#pa09f5656ca)" style="fill: #8607b4"/>
   </g>
   <g id="patch_88">
    <path d="M 544.796238 135.05686 
L 554.358983 135.05686 
L 554.358983 139.847312 
L 568.468603 139.847312 
L 568.468603 135.05686 
L 578.031348 135.05686 
L 578.031348 147.62843 
L 568.468603 147.62843 
L 568.468603 142.299119 
L 554.358983 142.299119 
L 554.358983 147.62843 
L 544.796238 147.62843 
L 544.796238 135.05686 
z
" clip-path="url(#pa09f5656ca)" style="fill: #0f73ee"/>
   </g>
   <g id="patch_89">
    <path d="M 544.796238 122.48529 
L 577.339576 122.48529 
L 577.339576 124.937096 
L 556.857124 124.937096 
L 556.857124 127.275742 
L 576.12647 127.275742 
L 576.12647 129.727549 
L 556.857124 129.727549 
L 556.857124 132.607748 
L 578.031348 132.607748 
L 578.031348 135.05686 
L 544.796238 135.05686 
L 544.796238 122.48529 
z
" clip-path="url(#pa09f5656ca)" style="fill: #028489"/>
   </g>
   <g id="patch_90">
    <path d="M 553.903718 112.365526 
L 553.903718 120.036178 
L 557.166664 120.036178 
Q 562.746226 120.036178 565.691205 119.050067 
Q 568.643754 118.063956 568.643754 116.186033 
Q 568.643754 114.318889 565.706346 113.343555 
Q 562.776508 112.365526 557.166664 112.365526 
L 553.903718 112.365526 
z
M 544.796238 109.91372 
L 554.39581 109.91372 
Q 562.4434 109.91372 566.380133 110.323252 
Q 570.316866 110.730091 573.133144 111.708119 
Q 575.616314 112.559515 576.820046 113.672258 
Q 578.031348 114.782307 578.031348 116.186033 
Q 578.031348 117.611314 576.820046 118.726752 
Q 575.616314 119.842189 573.133144 120.690891 
Q 570.294154 121.668919 566.319568 122.078452 
Q 562.344982 122.48529 554.39581 122.48529 
L 544.796238 122.48529 
L 544.796238 109.91372 
z
" clip-path="url(#pa09f5656ca)" style="fill: #068855"/>
   </g>
   <g id="patch_91">
    <path d="M 578.031348 109.012597 
Q 575.251288 109.459263 572.24514 109.685193 
Q 569.238991 109.91372 565.964885 109.91372 
Q 556.201181 109.91372 550.49871 108.220544 
Q 544.796238 106.527369 544.796238 103.63183 
Q 544.796238 100.725904 550.49871 99.035326 
Q 556.201181 97.34215 565.964885 97.34215 
Q 569.238991 97.34215 572.24514 97.570677 
Q 575.251288 97.796607 578.031348 98.243273 
L 578.031348 100.749277 
Q 575.226167 100.157184 572.504724 99.881914 
Q 569.78328 99.606643 566.777131 99.606643 
Q 561.384485 99.606643 558.2946 100.67916 
Q 555.213088 101.749081 555.213088 103.63183 
Q 555.213088 105.506789 558.2946 106.579306 
Q 561.384485 107.649227 566.777131 107.649227 
Q 569.78328 107.649227 572.504724 107.373956 
Q 575.226167 107.096089 578.031348 106.503996 
L 578.031348 109.012597 
z
" clip-path="url(#pa09f5656ca)" style="fill: #ef0300"/>
   </g>
   <g id="patch_92">
    <path d="M 544.796238 84.77058 
L 555.471855 84.77058 
L 568.961446 93.392317 
L 568.961446 84.77058 
L 578.031348 84.77058 
L 578.031348 97.34215 
L 567.347782 97.34215 
L 553.858191 88.720413 
L 553.858191 97.34215 
L 544.796238 97.34215 
L 544.796238 84.77058 
z
" clip-path="url(#pa09f5656ca)" style="fill: #0f5e46"/>
   </g>
   <g id="patch_93">
    <path d="M 567.818228 80.190282 
L 555.036539 80.190282 
L 553.018377 84.77058 
L 544.796238 84.77058 
L 556.538268 59.62744 
L 566.289318 59.62744 
L 578.031348 84.77058 
L 569.816004 84.77058 
L 567.818228 80.190282 
z
M 557.075086 75.523767 
L 565.759296 75.523767 
L 561.423986 65.522552 
L 557.075086 75.523767 
z
" clip-path="url(#pa09f5656ca)" style="fill: #b36139"/>
   </g>
   <g id="patch_94">
    <path d="M 579.780564 143.629656 
L 591.84145 143.629656 
L 591.84145 156.971873 
L 613.015674 156.971873 
L 613.015674 160.2 
L 579.780564 160.2 
L 579.780564 143.629656 
z
" clip-path="url(#pa09f5656ca)" style="fill: #de1a76"/>
   </g>
   <g id="patch_95">
    <path d="M 580.12645 127.059312 
L 612.669788 127.059312 
L 612.669788 130.290991 
L 592.187336 130.290991 
L 592.187336 133.373515 
L 611.456682 133.373515 
L 611.456682 136.605194 
L 592.187336 136.605194 
L 592.187336 143.629656 
L 580.12645 143.629656 
L 580.12645 127.059312 
z
" clip-path="url(#pa09f5656ca)" style="fill: #da06b6"/>
   </g>
   <g id="patch_96">
    <path d="M 613.015674 124.060836 
Q 609.663859 125.560074 606.058795 126.313116 
Q 602.453732 127.059312 598.610317 127.059312 
Q 589.925392 127.059312 584.852978 122.595828 
Q 579.780564 118.132343 579.780564 110.499237 
Q 579.780564 102.777135 584.94236 98.34788 
Q 590.111604 93.918624 599.101917 93.918624 
Q 602.565459 93.918624 605.738511 94.521058 
Q 608.919011 95.116646 611.734536 96.294129 
L 611.734536 102.90036 
Q 608.829629 101.387431 605.954517 100.641235 
Q 603.079404 99.888193 600.189395 99.888193 
Q 594.841387 99.888193 591.943929 102.640218 
Q 589.046471 105.385398 589.046471 110.499237 
Q 589.046471 115.565155 591.83965 118.330872 
Q 594.63283 121.089744 599.77228 121.089744 
Q 601.172594 121.089744 602.371799 120.93229 
Q 603.571004 120.76799 604.524409 120.425698 
L 604.524409 114.223371 
L 599.049777 114.223371 
L 599.049777 108.698782 
L 613.015674 108.698782 
L 613.015674 124.060836 
z
" clip-path="url(#pa09f5656ca)" style="fill: #797c00"/>
   </g>
   <g id="patch_97">
    <path d="M 579.780564 60.777937 
L 588.538908 60.777937 
L 588.538908 72.873648 
L 601.163153 60.777937 
L 611.333897 60.777937 
L 594.974797 76.474662 
L 613.015674 93.918624 
L 602.051364 93.918624 
L 588.538908 80.864063 
L 588.538908 93.918624 
L 579.780564 93.918624 
L 579.780564 60.777937 
z
" clip-path="url(#pa09f5656ca)" style="fill: #0a81a2"/>
   </g>
   <g id="patch_98">
    <path d="M 602.802554 54.740735 
L 590.020865 54.740735 
L 588.002703 60.777937 
L 579.780564 60.777937 
L 591.522594 27.637249 
L 601.273644 27.637249 
L 613.015674 60.777937 
L 604.80033 60.777937 
L 602.802554 54.740735 
z
M 592.059412 48.589891 
L 600.743622 48.589891 
L 596.408312 35.407483 
L 592.059412 48.589891 
z
" clip-path="url(#pa09f5656ca)" style="fill: #b36139"/>
   </g>
   <g id="patch_99">
    <path d="M 614.76489 147.62843 
L 626.825776 147.62843 
L 626.825776 157.750888 
L 648 157.750888 
L 648 160.2 
L 614.76489 160.2 
L 614.76489 147.62843 
z
" clip-path="url(#pa09f5656ca)" style="fill: #de1a76"/>
   </g>
   <g id="patch_100">
    <path d="M 615.110776 135.05686 
L 647.654114 135.05686 
L 647.654114 137.508666 
L 627.171662 137.508666 
L 627.171662 139.847312 
L 646.441008 139.847312 
L 646.441008 142.299119 
L 627.171662 142.299119 
L 627.171662 147.62843 
L 615.110776 147.62843 
L 615.110776 135.05686 
z
" clip-path="url(#pa09f5656ca)" style="fill: #da06b6"/>
   </g>
   <g id="patch_101">
    <path d="M 614.76489 122.48529 
L 647.308228 122.48529 
L 647.308228 124.937096 
L 626.825776 124.937096 
L 626.825776 127.275742 
L 646.095122 127.275742 
L 646.095122 129.727549 
L 626.825776 129.727549 
L 626.825776 132.607748 
L 648 132.607748 
L 648 135.05686 
L 614.76489 135.05686 
L 614.76489 122.48529 
z
" clip-path="url(#pa09f5656ca)" style="fill: #028489"/>
   </g>
   <g id="patch_102">
    <path d="M 623.87237 112.365526 
L 623.87237 120.036178 
L 627.135316 120.036178 
Q 632.714878 120.036178 635.659857 119.050067 
Q 638.612406 118.063956 638.612406 116.186033 
Q 638.612406 114.318889 635.674998 113.343555 
Q 632.74516 112.365526 627.135316 112.365526 
L 623.87237 112.365526 
z
M 614.76489 109.91372 
L 624.364462 109.91372 
Q 632.412052 109.91372 636.348785 110.323252 
Q 640.285518 110.730091 643.101796 111.708119 
Q 645.584966 112.559515 646.788698 113.672258 
Q 648 114.782307 648 116.186033 
Q 648 117.611314 646.788698 118.726752 
Q 645.584966 119.842189 643.101796 120.690891 
Q 640.262806 121.668919 636.28822 122.078452 
Q 632.313634 122.48529 624.364462 122.48529 
L 614.76489 122.48529 
L 614.76489 109.91372 
z
" clip-path="url(#pa09f5656ca)" style="fill: #068855"/>
   </g>
   <g id="patch_103">
    <path d="M 648 108.77628 
Q 644.648185 109.345 641.043121 109.630658 
Q 637.438058 109.91372 633.594643 109.91372 
Q 624.909718 109.91372 619.837304 108.220544 
Q 614.76489 106.527369 614.76489 103.63183 
Q 614.76489 100.702532 619.926686 99.022341 
Q 625.09593 97.34215 634.086243 97.34215 
Q 637.549785 97.34215 640.722837 97.570677 
Q 643.903337 97.796607 646.718862 98.243273 
L 646.718862 100.749277 
Q 643.813955 100.175363 640.938843 99.892301 
Q 638.06373 99.606643 635.173721 99.606643 
Q 629.825713 99.606643 626.928255 100.650595 
Q 624.030797 101.69195 624.030797 103.63183 
Q 624.030797 105.553533 626.823976 106.602678 
Q 629.617156 107.649227 634.756606 107.649227 
Q 636.15692 107.649227 637.356125 107.589499 
Q 638.55533 107.527173 639.508735 107.397328 
L 639.508735 105.044541 
L 634.034103 105.044541 
L 634.034103 102.948847 
L 648 102.948847 
L 648 108.77628 
z
" clip-path="url(#pa09f5656ca)" style="fill: #797c00"/>
   </g>
   <g id="patch_104">
    <path d="M 614.76489 84.77058 
L 623.953421 84.77058 
L 631.375463 89.251189 
L 638.790523 84.77058 
L 648 84.77058 
L 635.585709 92.04517 
L 635.585709 97.34215 
L 627.186163 97.34215 
L 627.186163 92.04517 
L 614.76489 84.77058 
z
" clip-path="url(#pa09f5656ca)" style="fill: #8607b4"/>
   </g>
   <g id="patch_105">
    <path d="M 614.76489 59.62744 
L 622.987029 59.62744 
L 631.392638 78.185728 
L 639.784656 59.62744 
L 648 59.62744 
L 636.25797 84.77058 
L 626.50692 84.77058 
L 614.76489 59.62744 
z
" clip-path="url(#pa09f5656ca)" style="fill: #da3952"/>
   </g>
   <g id="matplotlib.axis_1">
    <g id="xtick_1">
     <g id="line2d_2">
      <defs>
       <path id="ma6857a97f8" d="M 0 0 
L 0 3.5 
" style="stroke: #000000; stroke-width: 0.8"/>
      </defs>
      <g>
       <use xlink:href="#ma6857a97f8" x="106.617555" y="160.2" style="stroke: #000000; stroke-width: 0.8"/>
      </g>
     </g>
     <g id="text_1">
      <!-- 1 -->
      <g transform="translate(103.436305 174.798438) scale(0.1 -0.1)">
       <defs>
        <path id="DejaVuSans-31" d="M 794 531 
L 1825 531 
L 1825 4091 
L 703 3866 
L 703 4441 
L 1819 4666 
L 2450 4666 
L 2450 531 
L 3481 531 
L 3481 0 
L 794 0 
L 794 531 
z
" transform="scale(0.015625)"/>
       </defs>
       <use xlink:href="#DejaVuSans-31"/>
      </g>
     </g>
    </g>
    <g id="xtick_2">
     <g id="line2d_3">
      <g>
       <use xlink:href="#ma6857a97f8" x="141.601881" y="160.2" style="stroke: #000000; stroke-width: 0.8"/>
      </g>
     </g>
     <g id="text_2">
      <!-- 2 -->
      <g transform="translate(138.420631 174.798438) scale(0.1 -0.1)">
       <defs>
        <path id="DejaVuSans-32" d="M 1228 531 
L 3431 531 
L 3431 0 
L 469 0 
L 469 531 
Q 828 903 1448 1529 
Q 2069 2156 2228 2338 
Q 2531 2678 2651 2914 
Q 2772 3150 2772 3378 
Q 2772 3750 2511 3984 
Q 2250 4219 1831 4219 
Q 1534 4219 1204 4116 
Q 875 4013 500 3803 
L 500 4441 
Q 881 4594 1212 4672 
Q 1544 4750 1819 4750 
Q 2544 4750 2975 4387 
Q 3406 4025 3406 3419 
Q 3406 3131 3298 2873 
Q 3191 2616 2906 2266 
Q 2828 2175 2409 1742 
Q 1991 1309 1228 531 
z
" transform="scale(0.015625)"/>
       </defs>
       <use xlink:href="#DejaVuSans-32"/>
      </g>
     </g>
    </g>
    <g id="xtick_3">
     <g id="line2d_4">
      <g>
       <use xlink:href="#ma6857a97f8" x="176.586207" y="160.2" style="stroke: #000000; stroke-width: 0.8"/>
      </g>
     </g>
     <g id="text_3">
      <!-- 3 -->
      <g transform="translate(173.404957 174.798438) scale(0.1 -0.1)">
       <defs>
        <path id="DejaVuSans-33" d="M 2597 2516 
Q 3050 2419 3304 2112 
Q 3559 1806 3559 1356 
Q 3559 666 3084 287 
Q 2609 -91 1734 -91 
Q 1441 -91 1130 -33 
Q 819 25 488 141 
L 488 750 
Q 750 597 1062 519 
Q 1375 441 1716 441 
Q 2309 441 2620 675 
Q 2931 909 2931 1356 
Q 2931 1769 2642 2001 
Q 2353 2234 1838 2234 
L 1294 2234 
L 1294 2753 
L 1863 2753 
Q 2328 2753 2575 2939 
Q 2822 3125 2822 3475 
Q 2822 3834 2567 4026 
Q 2313 4219 1838 4219 
Q 1578 4219 1281 4162 
Q 984 4106 628 3988 
L 628 4550 
Q 988 4650 1302 4700 
Q 1616 4750 1894 4750 
Q 2613 4750 3031 4423 
Q 3450 4097 3450 3541 
Q 3450 3153 3228 2886 
Q 3006 2619 2597 2516 
z
" transform="scale(0.015625)"/>
       </defs>
       <use xlink:href="#DejaVuSans-33"/>
      </g>
     </g>
    </g>
    <g id="xtick_4">
     <g id="line2d_5">
      <g>
       <use xlink:href="#ma6857a97f8" x="211.570533" y="160.2" style="stroke: #000000; stroke-width: 0.8"/>
      </g>
     </g>
     <g id="text_4">
      <!-- 4 -->
      <g transform="translate(208.389283 174.798438) scale(0.1 -0.1)">
       <defs>
        <path id="DejaVuSans-34" d="M 2419 4116 
L 825 1625 
L 2419 1625 
L 2419 4116 
z
M 2253 4666 
L 3047 4666 
L 3047 1625 
L 3713 1625 
L 3713 1100 
L 3047 1100 
L 3047 0 
L 2419 0 
L 2419 1100 
L 313 1100 
L 313 1709 
L 2253 4666 
z
" transform="scale(0.015625)"/>
       </defs>
       <use xlink:href="#DejaVuSans-34"/>
      </g>
     </g>
    </g>
    <g id="xtick_5">
     <g id="line2d_6">
      <g>
       <use xlink:href="#ma6857a97f8" x="246.554859" y="160.2" style="stroke: #000000; stroke-width: 0.8"/>
      </g>
     </g>
     <g id="text_5">
      <!-- 5 -->
      <g transform="translate(243.373609 174.798438) scale(0.1 -0.1)">
       <defs>
        <path id="DejaVuSans-35" d="M 691 4666 
L 3169 4666 
L 3169 4134 
L 1269 4134 
L 1269 2991 
Q 1406 3038 1543 3061 
Q 1681 3084 1819 3084 
Q 2600 3084 3056 2656 
Q 3513 2228 3513 1497 
Q 3513 744 3044 326 
Q 2575 -91 1722 -91 
Q 1428 -91 1123 -41 
Q 819 9 494 109 
L 494 744 
Q 775 591 1075 516 
Q 1375 441 1709 441 
Q 2250 441 2565 725 
Q 2881 1009 2881 1497 
Q 2881 1984 2565 2268 
Q 2250 2553 1709 2553 
Q 1456 2553 1204 2497 
Q 953 2441 691 2322 
L 691 4666 
z
" transform="scale(0.015625)"/>
       </defs>
       <use xlink:href="#DejaVuSans-35"/>
      </g>
     </g>
    </g>
    <g id="xtick_6">
     <g id="line2d_7">
      <g>
       <use xlink:href="#ma6857a97f8" x="281.539185" y="160.2" style="stroke: #000000; stroke-width: 0.8"/>
      </g>
     </g>
     <g id="text_6">
      <!-- 6 -->
      <g transform="translate(278.357935 174.798438) scale(0.1 -0.1)">
       <defs>
        <path id="DejaVuSans-36" d="M 2113 2584 
Q 1688 2584 1439 2293 
Q 1191 2003 1191 1497 
Q 1191 994 1439 701 
Q 1688 409 2113 409 
Q 2538 409 2786 701 
Q 3034 994 3034 1497 
Q 3034 2003 2786 2293 
Q 2538 2584 2113 2584 
z
M 3366 4563 
L 3366 3988 
Q 3128 4100 2886 4159 
Q 2644 4219 2406 4219 
Q 1781 4219 1451 3797 
Q 1122 3375 1075 2522 
Q 1259 2794 1537 2939 
Q 1816 3084 2150 3084 
Q 2853 3084 3261 2657 
Q 3669 2231 3669 1497 
Q 3669 778 3244 343 
Q 2819 -91 2113 -91 
Q 1303 -91 875 529 
Q 447 1150 447 2328 
Q 447 3434 972 4092 
Q 1497 4750 2381 4750 
Q 2619 4750 2861 4703 
Q 3103 4656 3366 4563 
z
" transform="scale(0.015625)"/>
       </defs>
       <use xlink:href="#DejaVuSans-36"/>
      </g>
     </g>
    </g>
    <g id="xtick_7">
     <g id="line2d_8">
      <g>
       <use xlink:href="#ma6857a97f8" x="316.523511" y="160.2" style="stroke: #000000; stroke-width: 0.8"/>
      </g>
     </g>
     <g id="text_7">
      <!-- 7 -->
      <g transform="translate(313.342261 174.798438) scale(0.1 -0.1)">
       <defs>
        <path id="DejaVuSans-37" d="M 525 4666 
L 3525 4666 
L 3525 4397 
L 1831 0 
L 1172 0 
L 2766 4134 
L 525 4134 
L 525 4666 
z
" transform="scale(0.015625)"/>
       </defs>
       <use xlink:href="#DejaVuSans-37"/>
      </g>
     </g>
    </g>
    <g id="xtick_8">
     <g id="line2d_9">
      <g>
       <use xlink:href="#ma6857a97f8" x="351.507837" y="160.2" style="stroke: #000000; stroke-width: 0.8"/>
      </g>
     </g>
     <g id="text_8">
      <!-- 8 -->
      <g transform="translate(348.326587 174.798438) scale(0.1 -0.1)">
       <defs>
        <path id="DejaVuSans-38" d="M 2034 2216 
Q 1584 2216 1326 1975 
Q 1069 1734 1069 1313 
Q 1069 891 1326 650 
Q 1584 409 2034 409 
Q 2484 409 2743 651 
Q 3003 894 3003 1313 
Q 3003 1734 2745 1975 
Q 2488 2216 2034 2216 
z
M 1403 2484 
Q 997 2584 770 2862 
Q 544 3141 544 3541 
Q 544 4100 942 4425 
Q 1341 4750 2034 4750 
Q 2731 4750 3128 4425 
Q 3525 4100 3525 3541 
Q 3525 3141 3298 2862 
Q 3072 2584 2669 2484 
Q 3125 2378 3379 2068 
Q 3634 1759 3634 1313 
Q 3634 634 3220 271 
Q 2806 -91 2034 -91 
Q 1263 -91 848 271 
Q 434 634 434 1313 
Q 434 1759 690 2068 
Q 947 2378 1403 2484 
z
M 1172 3481 
Q 1172 3119 1398 2916 
Q 1625 2713 2034 2713 
Q 2441 2713 2670 2916 
Q 2900 3119 2900 3481 
Q 2900 3844 2670 4047 
Q 2441 4250 2034 4250 
Q 1625 4250 1398 4047 
Q 1172 3844 1172 3481 
z
" transform="scale(0.015625)"/>
       </defs>
       <use xlink:href="#DejaVuSans-38"/>
      </g>
     </g>
    </g>
    <g id="xtick_9">
     <g id="line2d_10">
      <g>
       <use xlink:href="#ma6857a97f8" x="386.492163" y="160.2" style="stroke: #000000; stroke-width: 0.8"/>
      </g>
     </g>
     <g id="text_9">
      <!-- 9 -->
      <g transform="translate(383.310913 174.798438) scale(0.1 -0.1)">
       <defs>
        <path id="DejaVuSans-39" d="M 703 97 
L 703 672 
Q 941 559 1184 500 
Q 1428 441 1663 441 
Q 2288 441 2617 861 
Q 2947 1281 2994 2138 
Q 2813 1869 2534 1725 
Q 2256 1581 1919 1581 
Q 1219 1581 811 2004 
Q 403 2428 403 3163 
Q 403 3881 828 4315 
Q 1253 4750 1959 4750 
Q 2769 4750 3195 4129 
Q 3622 3509 3622 2328 
Q 3622 1225 3098 567 
Q 2575 -91 1691 -91 
Q 1453 -91 1209 -44 
Q 966 3 703 97 
z
M 1959 2075 
Q 2384 2075 2632 2365 
Q 2881 2656 2881 3163 
Q 2881 3666 2632 3958 
Q 2384 4250 1959 4250 
Q 1534 4250 1286 3958 
Q 1038 3666 1038 3163 
Q 1038 2656 1286 2365 
Q 1534 2075 1959 2075 
z
" transform="scale(0.015625)"/>
       </defs>
       <use xlink:href="#DejaVuSans-39"/>
      </g>
     </g>
    </g>
    <g id="xtick_10">
     <g id="line2d_11">
      <g>
       <use xlink:href="#ma6857a97f8" x="421.476489" y="160.2" style="stroke: #000000; stroke-width: 0.8"/>
      </g>
     </g>
     <g id="text_10">
      <!-- 10 -->
      <g transform="translate(415.113989 174.798438) scale(0.1 -0.1)">
       <defs>
        <path id="DejaVuSans-30" d="M 2034 4250 
Q 1547 4250 1301 3770 
Q 1056 3291 1056 2328 
Q 1056 1369 1301 889 
Q 1547 409 2034 409 
Q 2525 409 2770 889 
Q 3016 1369 3016 2328 
Q 3016 3291 2770 3770 
Q 2525 4250 2034 4250 
z
M 2034 4750 
Q 2819 4750 3233 4129 
Q 3647 3509 3647 2328 
Q 3647 1150 3233 529 
Q 2819 -91 2034 -91 
Q 1250 -91 836 529 
Q 422 1150 422 2328 
Q 422 3509 836 4129 
Q 1250 4750 2034 4750 
z
" transform="scale(0.015625)"/>
       </defs>
       <use xlink:href="#DejaVuSans-31"/>
       <use xlink:href="#DejaVuSans-30" x="63.623047"/>
      </g>
     </g>
    </g>
    <g id="xtick_11">
     <g id="line2d_12">
      <g>
       <use xlink:href="#ma6857a97f8" x="456.460815" y="160.2" style="stroke: #000000; stroke-width: 0.8"/>
      </g>
     </g>
     <g id="text_11">
      <!-- 11 -->
      <g transform="translate(450.098315 174.798438) scale(0.1 -0.1)">
       <use xlink:href="#DejaVuSans-31"/>
       <use xlink:href="#DejaVuSans-31" x="63.623047"/>
      </g>
     </g>
    </g>
    <g id="xtick_12">
     <g id="line2d_13">
      <g>
       <use xlink:href="#ma6857a97f8" x="491.445141" y="160.2" style="stroke: #000000; stroke-width: 0.8"/>
      </g>
     </g>
     <g id="text_12">
      <!-- 12 -->
      <g transform="translate(485.082641 174.798438) scale(0.1 -0.1)">
       <use xlink:href="#DejaVuSans-31"/>
       <use xlink:href="#DejaVuSans-32" x="63.623047"/>
      </g>
     </g>
    </g>
    <g id="xtick_13">
     <g id="line2d_14">
      <g>
       <use xlink:href="#ma6857a97f8" x="526.429467" y="160.2" style="stroke: #000000; stroke-width: 0.8"/>
      </g>
     </g>
     <g id="text_13">
      <!-- 13 -->
      <g transform="translate(520.066967 174.798438) scale(0.1 -0.1)">
       <use xlink:href="#DejaVuSans-31"/>
       <use xlink:href="#DejaVuSans-33" x="63.623047"/>
      </g>
     </g>
    </g>
    <g id="xtick_14">
     <g id="line2d_15">
      <g>
       <use xlink:href="#ma6857a97f8" x="561.413793" y="160.2" style="stroke: #000000; stroke-width: 0.8"/>
      </g>
     </g>
     <g id="text_14">
      <!-- 14 -->
      <g transform="translate(555.051293 174.798438) scale(0.1 -0.1)">
       <use xlink:href="#DejaVuSans-31"/>
       <use xlink:href="#DejaVuSans-34" x="63.623047"/>
      </g>
     </g>
    </g>
    <g id="xtick_15">
     <g id="line2d_16">
      <g>
       <use xlink:href="#ma6857a97f8" x="596.398119" y="160.2" style="stroke: #000000; stroke-width: 0.8"/>
      </g>
     </g>
     <g id="text_15">
      <!-- 15 -->
      <g transform="translate(590.035619 174.798438) scale(0.1 -0.1)">
       <use xlink:href="#DejaVuSans-31"/>
       <use xlink:href="#DejaVuSans-35" x="63.623047"/>
      </g>
     </g>
    </g>
    <g id="xtick_16">
     <g id="line2d_17">
      <g>
       <use xlink:href="#ma6857a97f8" x="631.382445" y="160.2" style="stroke: #000000; stroke-width: 0.8"/>
      </g>
     </g>
     <g id="text_16">
      <!-- 16 -->
      <g transform="translate(625.019945 174.798438) scale(0.1 -0.1)">
       <use xlink:href="#DejaVuSans-31"/>
       <use xlink:href="#DejaVuSans-36" x="63.623047"/>
      </g>
     </g>
    </g>
    <g id="text_17">
     <!-- Position -->
     <g transform="translate(349.535937 188.476562) scale(0.1 -0.1)">
      <defs>
       <path id="DejaVuSans-50" d="M 1259 4147 
L 1259 2394 
L 2053 2394 
Q 2494 2394 2734 2622 
Q 2975 2850 2975 3272 
Q 2975 3691 2734 3919 
Q 2494 4147 2053 4147 
L 1259 4147 
z
M 628 4666 
L 2053 4666 
Q 2838 4666 3239 4311 
Q 3641 3956 3641 3272 
Q 3641 2581 3239 2228 
Q 2838 1875 2053 1875 
L 1259 1875 
L 1259 0 
L 628 0 
L 628 4666 
z
" transform="scale(0.015625)"/>
       <path id="DejaVuSans-6f" d="M 1959 3097 
Q 1497 3097 1228 2736 
Q 959 2375 959 1747 
Q 959 1119 1226 758 
Q 1494 397 1959 397 
Q 2419 397 2687 759 
Q 2956 1122 2956 1747 
Q 2956 2369 2687 2733 
Q 2419 3097 1959 3097 
z
M 1959 3584 
Q 2709 3584 3137 3096 
Q 3566 2609 3566 1747 
Q 3566 888 3137 398 
Q 2709 -91 1959 -91 
Q 1206 -91 779 398 
Q 353 888 353 1747 
Q 353 2609 779 3096 
Q 1206 3584 1959 3584 
z
" transform="scale(0.015625)"/>
       <path id="DejaVuSans-73" d="M 2834 3397 
L 2834 2853 
Q 2591 2978 2328 3040 
Q 2066 3103 1784 3103 
Q 1356 3103 1142 2972 
Q 928 2841 928 2578 
Q 928 2378 1081 2264 
Q 1234 2150 1697 2047 
L 1894 2003 
Q 2506 1872 2764 1633 
Q 3022 1394 3022 966 
Q 3022 478 2636 193 
Q 2250 -91 1575 -91 
Q 1294 -91 989 -36 
Q 684 19 347 128 
L 347 722 
Q 666 556 975 473 
Q 1284 391 1588 391 
Q 1994 391 2212 530 
Q 2431 669 2431 922 
Q 2431 1156 2273 1281 
Q 2116 1406 1581 1522 
L 1381 1569 
Q 847 1681 609 1914 
Q 372 2147 372 2553 
Q 372 3047 722 3315 
Q 1072 3584 1716 3584 
Q 2034 3584 2315 3537 
Q 2597 3491 2834 3397 
z
" transform="scale(0.015625)"/>
       <path id="DejaVuSans-69" d="M 603 3500 
L 1178 3500 
L 1178 0 
L 603 0 
L 603 3500 
z
M 603 4863 
L 1178 4863 
L 1178 4134 
L 603 4134 
L 603 4863 
z
" transform="scale(0.015625)"/>
       <path id="DejaVuSans-74" d="M 1172 4494 
L 1172 3500 
L 2356 3500 
L 2356 3053 
L 1172 3053 
L 1172 1153 
Q 1172 725 1289 603 
Q 1406 481 1766 481 
L 2356 481 
L 2356 0 
L 1766 0 
Q 1100 0 847 248 
Q 594 497 594 1153 
L 594 3053 
L 172 3053 
L 172 3500 
L 594 3500 
L 594 4494 
L 1172 4494 
z
" transform="scale(0.015625)"/>
       <path id="DejaVuSans-6e" d="M 3513 2113 
L 3513 0 
L 2938 0 
L 2938 2094 
Q 2938 2591 2744 2837 
Q 2550 3084 2163 3084 
Q 1697 3084 1428 2787 
Q 1159 2491 1159 1978 
L 1159 0 
L 581 0 
L 581 3500 
L 1159 3500 
L 1159 2956 
Q 1366 3272 1645 3428 
Q 1925 3584 2291 3584 
Q 2894 3584 3203 3211 
Q 3513 2838 3513 2113 
z
" transform="scale(0.015625)"/>
      </defs>
      <use xlink:href="#DejaVuSans-50"/>
      <use xlink:href="#DejaVuSans-6f" x="56.677734"/>
      <use xlink:href="#DejaVuSans-73" x="117.859375"/>
      <use xlink:href="#DejaVuSans-69" x="169.958984"/>
      <use xlink:href="#DejaVuSans-74" x="197.742188"/>
      <use xlink:href="#DejaVuSans-69" x="236.951172"/>
      <use xlink:href="#DejaVuSans-6f" x="264.734375"/>
      <use xlink:href="#DejaVuSans-6e" x="325.916016"/>
     </g>
    </g>
   </g>
   <g id="matplotlib.axis_2">
    <g id="ytick_1">
     <g id="line2d_18">
      <defs>
       <path id="m4e9f2e06ec" d="M 0 0 
L -3.5 0 
" style="stroke: #000000; stroke-width: 0.8"/>
      </defs>
      <g>
       <use xlink:href="#m4e9f2e06ec" x="90" y="160.2" style="stroke: #000000; stroke-width: 0.8"/>
      </g>
     </g>
     <g id="text_18">
      <!-- 0.0 -->
      <g transform="translate(67.096875 163.999219) scale(0.1 -0.1)">
       <defs>
        <path id="DejaVuSans-2e" d="M 684 794 
L 1344 794 
L 1344 0 
L 684 0 
L 684 794 
z
" transform="scale(0.015625)"/>
       </defs>
       <use xlink:href="#DejaVuSans-30"/>
       <use xlink:href="#DejaVuSans-2e" x="63.623047"/>
       <use xlink:href="#DejaVuSans-30" x="95.410156"/>
      </g>
     </g>
    </g>
    <g id="ytick_2">
     <g id="line2d_19">
      <g>
       <use xlink:href="#m4e9f2e06ec" x="90" y="128.209809" style="stroke: #000000; stroke-width: 0.8"/>
      </g>
     </g>
     <g id="text_19">
      <!-- 0.5 -->
      <g transform="translate(67.096875 132.009028) scale(0.1 -0.1)">
       <use xlink:href="#DejaVuSans-30"/>
       <use xlink:href="#DejaVuSans-2e" x="63.623047"/>
       <use xlink:href="#DejaVuSans-35" x="95.410156"/>
      </g>
     </g>
    </g>
    <g id="ytick_3">
     <g id="line2d_20">
      <g>
       <use xlink:href="#m4e9f2e06ec" x="90" y="96.219618" style="stroke: #000000; stroke-width: 0.8"/>
      </g>
     </g>
     <g id="text_20">
      <!-- 1.0 -->
      <g transform="translate(67.096875 100.018837) scale(0.1 -0.1)">
       <use xlink:href="#DejaVuSans-31"/>
       <use xlink:href="#DejaVuSans-2e" x="63.623047"/>
       <use xlink:href="#DejaVuSans-30" x="95.410156"/>
      </g>
     </g>
    </g>
    <g id="ytick_4">
     <g id="line2d_21">
      <g>
       <use xlink:href="#m4e9f2e06ec" x="90" y="64.229427" style="stroke: #000000; stroke-width: 0.8"/>
      </g>
     </g>
     <g id="text_21">
      <!-- 1.5 -->
      <g transform="translate(67.096875 68.028646) scale(0.1 -0.1)">
       <use xlink:href="#DejaVuSans-31"/>
       <use xlink:href="#DejaVuSans-2e" x="63.623047"/>
       <use xlink:href="#DejaVuSans-35" x="95.410156"/>
      </g>
     </g>
    </g>
    <g id="ytick_5">
     <g id="line2d_22">
      <g>
       <use xlink:href="#m4e9f2e06ec" x="90" y="32.239236" style="stroke: #000000; stroke-width: 0.8"/>
      </g>
     </g>
     <g id="text_22">
      <!-- 2.0 -->
      <g transform="translate(67.096875 36.038455) scale(0.1 -0.1)">
       <use xlink:href="#DejaVuSans-32"/>
       <use xlink:href="#DejaVuSans-2e" x="63.623047"/>
       <use xlink:href="#DejaVuSans-30" x="95.410156"/>
      </g>
     </g>
    </g>
    <g id="text_23">
     <!-- Bits -->
     <g transform="translate(61.017187 100.284375) rotate(-90) scale(0.1 -0.1)">
      <defs>
       <path id="DejaVuSans-42" d="M 1259 2228 
L 1259 519 
L 2272 519 
Q 2781 519 3026 730 
Q 3272 941 3272 1375 
Q 3272 1813 3026 2020 
Q 2781 2228 2272 2228 
L 1259 2228 
z
M 1259 4147 
L 1259 2741 
L 2194 2741 
Q 2656 2741 2882 2914 
Q 3109 3088 3109 3444 
Q 3109 3797 2882 3972 
Q 2656 4147 2194 4147 
L 1259 4147 
z
M 628 4666 
L 2241 4666 
Q 2963 4666 3353 4366 
Q 3744 4066 3744 3513 
Q 3744 3084 3544 2831 
Q 3344 2578 2956 2516 
Q 3422 2416 3680 2098 
Q 3938 1781 3938 1306 
Q 3938 681 3513 340 
Q 3088 0 2303 0 
L 628 0 
L 628 4666 
z
" transform="scale(0.015625)"/>
      </defs>
      <use xlink:href="#DejaVuSans-42"/>
      <use xlink:href="#DejaVuSans-69" x="68.603516"/>
      <use xlink:href="#DejaVuSans-74" x="96.386719"/>
      <use xlink:href="#DejaVuSans-73" x="135.595703"/>
     </g>
    </g>
   </g>
   <g id="patch_106">
    <path d="M 90 160.2 
L 90 21.6 
" style="fill: none; stroke: #000000; stroke-linejoin: miter; stroke-linecap: square"/>
   </g>
   <g id="patch_107">
    <path d="M 90 160.2 
L 648 160.2 
" style="fill: none; stroke: #000000; stroke-linejoin: miter; stroke-linecap: square"/>
   </g>
  </g>
 </g>
 <defs>
  <clipPath id="pa09f5656ca">
   <rect x="90" y="21.6" width="558" height="138.6"/>
  </clipPath>
 </defs>
</svg>
