<?xml version="1.0" encoding="utf-8" standalone="no"?>
<!DOCTYPE svg PUBLIC "-//W3C//DTD SVG 1.1//EN"
  "http://www.w3.org/Graphics/SVG/1.1/DTD/svg11.dtd">
<svg xmlns:xlink="http://www.w3.org/1999/xlink" width="720pt" height="180pt" viewBox="0 0 720 180" xmlns="http://www.w3.org/2000/svg" version="1.1">
 <metadata>
  <rdf:RDF xmlns:dc="http://purl.org/dc/elements/1.1/" xmlns:cc="http://creativecommons.org/ns#" xmlns:rdf="http://www.w3.org/1999/02/22-rdf-syntax-ns#">
   <cc:Work>
    <dc:type rdf:resource="http://purl.org/dc/dcmitype/StillImage"/>
    <dc:date>2023-06-02T00:41:22.715689</dc:date>
    <dc:format>image/svg+xml</dc:format>
    <dc:creator>
     <cc:Agent>
      <dc:title>Matplotlib v3.7.1, https://matplotlib.org/</dc:title>
     </cc:Agent>
    </dc:creator>
   </cc:Work>
  </rdf:RDF>
 </metadata>
 <defs>
  <style type="text/css">*{stroke-linejoin: round; stroke-linecap: butt}</style>
 </defs>
 <g id="figure_1">
  <g id="patch_1">
   <path d="M 0 180 
L 720 180 
L 720 0 
L 0 0 
z
" style="fill: #ffffff"/>
  </g>
  <g id="axes_1">
   <g id="patch_2">
    <path d="M 90 160.2 
L 648 160.2 
L 648 21.6 
L 90 21.6 
z
" style="fill: #ffffff"/>
   </g>
   <g id="line2d_1">
    <path d="M 90 160.2 
L 648 160.2 
" clip-path="url(#pb40380c3d9)" style="fill: none; stroke: #000000; stroke-width: 0.5; stroke-linecap: square"/>
   </g>
   <g id="patch_3">
    <path d="M 126.904597 134.951393 
L 106.415356 134.951393 
L 103.180213 160.2 
L 90 160.2 
L 108.822651 21.6 
L 124.453731 21.6 
L 143.276382 160.2 
L 130.107062 160.2 
L 126.904597 134.951393 
z
M 109.683178 109.227518 
L 123.604097 109.227518 
L 116.65453 54.096442 
L 109.683178 109.227518 
z
" clip-path="url(#pb40380c3d9)" style="fill: #b36139"/>
   </g>
   <g id="patch_4">
    <path d="M 194.914674 28.213634 
L 194.914674 56.500516 
Q 189.358419 51.576079 184.062613 49.08523 
Q 178.781277 46.565751 174.078718 46.565751 
Q 167.8424 46.565751 164.847232 49.972774 
Q 161.866533 53.351167 161.866533 60.508779 
Q 161.866533 65.891303 163.877781 68.897501 
Q 165.88903 71.875067 171.184835 74.022351 
L 178.593175 76.971287 
Q 189.850379 81.466267 194.596347 90.59938 
Q 199.356784 99.703863 199.356784 116.538566 
Q 199.356784 138.612642 192.729792 149.406321 
Q 186.102801 160.2 172.487082 160.2 
Q 166.077132 160.2 159.609304 157.766412 
Q 153.141476 155.361454 146.673648 150.6088 
L 146.673648 121.548895 
Q 153.141476 128.334311 159.175222 131.798595 
Q 165.208967 135.234249 170.8231 135.234249 
Q 176.524049 135.234249 179.548156 131.48366 
Q 182.572264 127.704441 182.572264 120.718612 
Q 182.572264 114.477174 180.517607 111.070151 
Q 178.46295 107.663127 172.313449 104.971865 
L 165.570703 102.022929 
Q 155.442113 97.728362 150.754023 88.337575 
Q 146.080402 78.946788 146.080402 63.028259 
Q 146.080402 43.072836 152.591638 32.336418 
Q 159.102875 21.6 171.31506 21.6 
Q 176.885784 21.6 182.760366 23.260566 
Q 188.634948 24.921132 194.914674 28.213634 
z
" clip-path="url(#pb40380c3d9)" style="fill: #6e5842"/>
   </g>
   <g id="patch_5">
    <path d="M 216.760232 48.630862 
L 216.760232 133.198843 
L 221.990783 133.198843 
Q 230.934905 133.198843 235.65575 122.32709 
Q 240.388732 111.455336 240.388732 90.751479 
Q 240.388732 70.166438 235.680022 59.413502 
Q 230.983448 48.630862 221.990783 48.630862 
L 216.760232 48.630862 
z
M 202.160804 21.6 
L 217.549062 21.6 
Q 230.449471 21.6 236.760113 26.115045 
Q 243.070755 30.600386 247.585291 41.383026 
Q 251.56585 50.769567 253.49545 63.03742 
Q 255.437186 75.275568 255.437186 90.751479 
Q 255.437186 106.465024 253.49545 118.76258 
Q 251.56585 131.060137 247.585291 140.416974 
Q 243.034347 151.199614 236.663026 155.714659 
Q 230.291705 160.2 217.549062 160.2 
L 202.160804 160.2 
L 202.160804 21.6 
z
" clip-path="url(#pb40380c3d9)" style="fill: #068855"/>
   </g>
   <g id="patch_6">
    <path d="M 307.075478 28.213634 
L 307.075478 56.500516 
Q 301.519223 51.576079 296.223417 49.08523 
Q 290.942081 46.565751 286.239522 46.565751 
Q 280.003205 46.565751 277.008036 49.972774 
Q 274.027337 53.351167 274.027337 60.508779 
Q 274.027337 65.891303 276.038585 68.897501 
Q 278.049834 71.875067 283.345639 74.022351 
L 290.753979 76.971287 
Q 302.011183 81.466267 306.757151 90.59938 
Q 311.517588 99.703863 311.517588 116.538566 
Q 311.517588 138.612642 304.890596 149.406321 
Q 298.263605 160.2 284.647886 160.2 
Q 278.237936 160.2 271.770108 157.766412 
Q 265.30228 155.361454 258.834452 150.6088 
L 258.834452 121.548895 
Q 265.30228 128.334311 271.336026 131.798595 
Q 277.369771 135.234249 282.983904 135.234249 
Q 288.684853 135.234249 291.70896 131.48366 
Q 294.733068 127.704441 294.733068 120.718612 
Q 294.733068 114.477174 292.678411 111.070151 
Q 290.623754 107.663127 284.474253 104.971865 
L 277.731507 102.022929 
Q 267.602917 97.728362 262.914827 88.337575 
Q 258.241206 78.946788 258.241206 63.028259 
Q 258.241206 43.072836 264.752442 32.336418 
Q 271.263679 21.6 283.475864 21.6 
Q 289.046588 21.6 294.92117 23.260566 
Q 300.795752 24.921132 307.075478 28.213634 
z
" clip-path="url(#pb40380c3d9)" style="fill: #6e5842"/>
   </g>
   <g id="patch_7">
    <path d="M 351.226205 134.951393 
L 330.736964 134.951393 
L 327.501821 160.2 
L 314.321608 160.2 
L 333.144259 21.6 
L 348.775339 21.6 
L 367.59799 160.2 
L 354.42867 160.2 
L 351.226205 134.951393 
z
M 334.004786 109.227518 
L 347.925705 109.227518 
L 340.976138 54.096442 
L 334.004786 109.227518 
z
" clip-path="url(#pb40380c3d9)" style="fill: #b36139"/>
   </g>
   <g id="patch_8">
    <path d="M 370.95647 21.6 
L 423.123932 21.6 
L 423.123932 48.630862 
L 390.290252 48.630862 
L 390.290252 74.414145 
L 421.179304 74.414145 
L 421.179304 101.445006 
L 390.290252 101.445006 
L 390.290252 160.2 
L 370.95647 160.2 
L 370.95647 21.6 
z
" clip-path="url(#pb40380c3d9)" style="fill: #da06b6"/>
   </g>
   <g id="patch_9">
    <path d="M 463.387009 134.951393 
L 442.897768 134.951393 
L 439.662625 160.2 
L 426.482412 160.2 
L 445.305063 21.6 
L 460.936143 21.6 
L 479.758794 160.2 
L 466.589474 160.2 
L 463.387009 134.951393 
z
M 446.16559 109.227518 
L 460.086509 109.227518 
L 453.136942 54.096442 
L 446.16559 109.227518 
z
" clip-path="url(#pb40380c3d9)" style="fill: #b36139"/>
   </g>
   <g id="patch_10">
    <path d="M 497.162242 48.630862 
L 497.162242 133.198843 
L 502.392793 133.198843 
Q 511.336915 133.198843 516.05776 122.32709 
Q 520.790742 111.455336 520.790742 90.751479 
Q 520.790742 70.166438 516.082032 59.413502 
Q 511.385458 48.630862 502.392793 48.630862 
L 497.162242 48.630862 
z
M 482.562814 21.6 
L 497.951072 21.6 
Q 510.851481 21.6 517.162123 26.115045 
Q 523.472765 30.600386 527.987301 41.383026 
Q 531.96786 50.769567 533.89746 63.03742 
Q 535.839196 75.275568 535.839196 90.751479 
Q 535.839196 106.465024 533.89746 118.76258 
Q 531.96786 131.060137 527.987301 140.416974 
Q 523.436357 151.199614 517.065036 155.714659 
Q 510.693715 160.2 497.951072 160.2 
L 482.562814 160.2 
L 482.562814 21.6 
z
" clip-path="url(#pb40380c3d9)" style="fill: #068855"/>
   </g>
   <g id="patch_11">
    <path d="M 575.547813 134.951393 
L 555.058572 134.951393 
L 551.823429 160.2 
L 538.643216 160.2 
L 557.465867 21.6 
L 573.096947 21.6 
L 591.919598 160.2 
L 578.750278 160.2 
L 575.547813 134.951393 
z
M 558.326394 109.227518 
L 572.247313 109.227518 
L 565.297746 54.096442 
L 558.326394 109.227518 
z
" clip-path="url(#pb40380c3d9)" style="fill: #b36139"/>
   </g>
   <g id="patch_12">
    <path d="M 595.278078 21.6 
L 647.44554 21.6 
L 647.44554 48.630862 
L 614.61186 48.630862 
L 614.61186 74.414145 
L 645.500912 74.414145 
L 645.500912 101.445006 
L 614.61186 101.445006 
L 614.61186 160.2 
L 595.278078 160.2 
L 595.278078 21.6 
z
" clip-path="url(#pb40380c3d9)" style="fill: #da06b6"/>
   </g>
   <g id="matplotlib.axis_1">
    <g id="xtick_1">
     <g id="line2d_2">
      <defs>
       <path id="maa37a3dd8d" d="M 0 0 
L 0 3.5 
" style="stroke: #000000; stroke-width: 0.8"/>
      </defs>
      <g>
       <use xlink:href="#maa37a3dd8d" x="116.638191" y="160.2" style="stroke: #000000; stroke-width: 0.8"/>
      </g>
     </g>
     <g id="text_1">
      <!-- 1 -->
      <g transform="translate(113.456941 174.798438) scale(0.1 -0.1)">
       <defs>
        <path id="DejaVuSans-31" d="M 794 531 
L 1825 531 
L 1825 4091 
L 703 3866 
L 703 4441 
L 1819 4666 
L 2450 4666 
L 2450 531 
L 3481 531 
L 3481 0 
L 794 0 
L 794 531 
z
" transform="scale(0.015625)"/>
       </defs>
       <use xlink:href="#DejaVuSans-31"/>
      </g>
     </g>
    </g>
    <g id="xtick_2">
     <g id="line2d_3">
      <g>
       <use xlink:href="#maa37a3dd8d" x="172.718593" y="160.2" style="stroke: #000000; stroke-width: 0.8"/>
      </g>
     </g>
     <g id="text_2">
      <!-- 2 -->
      <g transform="translate(169.537343 174.798438) scale(0.1 -0.1)">
       <defs>
        <path id="DejaVuSans-32" d="M 1228 531 
L 3431 531 
L 3431 0 
L 469 0 
L 469 531 
Q 828 903 1448 1529 
Q 2069 2156 2228 2338 
Q 2531 2678 2651 2914 
Q 2772 3150 2772 3378 
Q 2772 3750 2511 3984 
Q 2250 4219 1831 4219 
Q 1534 4219 1204 4116 
Q 875 4013 500 3803 
L 500 4441 
Q 881 4594 1212 4672 
Q 1544 4750 1819 4750 
Q 2544 4750 2975 4387 
Q 3406 4025 3406 3419 
Q 3406 3131 3298 2873 
Q 3191 2616 2906 2266 
Q 2828 2175 2409 1742 
Q 1991 1309 1228 531 
z
" transform="scale(0.015625)"/>
       </defs>
       <use xlink:href="#DejaVuSans-32"/>
      </g>
     </g>
    </g>
    <g id="xtick_3">
     <g id="line2d_4">
      <g>
       <use xlink:href="#maa37a3dd8d" x="228.798995" y="160.2" style="stroke: #000000; stroke-width: 0.8"/>
      </g>
     </g>
     <g id="text_3">
      <!-- 3 -->
      <g transform="translate(225.617745 174.798438) scale(0.1 -0.1)">
       <defs>
        <path id="DejaVuSans-33" d="M 2597 2516 
Q 3050 2419 3304 2112 
Q 3559 1806 3559 1356 
Q 3559 666 3084 287 
Q 2609 -91 1734 -91 
Q 1441 -91 1130 -33 
Q 819 25 488 141 
L 488 750 
Q 750 597 1062 519 
Q 1375 441 1716 441 
Q 2309 441 2620 675 
Q 2931 909 2931 1356 
Q 2931 1769 2642 2001 
Q 2353 2234 1838 2234 
L 1294 2234 
L 1294 2753 
L 1863 2753 
Q 2328 2753 2575 2939 
Q 2822 3125 2822 3475 
Q 2822 3834 2567 4026 
Q 2313 4219 1838 4219 
Q 1578 4219 1281 4162 
Q 984 4106 628 3988 
L 628 4550 
Q 988 4650 1302 4700 
Q 1616 4750 1894 4750 
Q 2613 4750 3031 4423 
Q 3450 4097 3450 3541 
Q 3450 3153 3228 2886 
Q 3006 2619 2597 2516 
z
" transform="scale(0.015625)"/>
       </defs>
       <use xlink:href="#DejaVuSans-33"/>
      </g>
     </g>
    </g>
    <g id="xtick_4">
     <g id="line2d_5">
      <g>
       <use xlink:href="#maa37a3dd8d" x="284.879397" y="160.2" style="stroke: #000000; stroke-width: 0.8"/>
      </g>
     </g>
     <g id="text_4">
      <!-- 4 -->
      <g transform="translate(281.698147 174.798438) scale(0.1 -0.1)">
       <defs>
        <path id="DejaVuSans-34" d="M 2419 4116 
L 825 1625 
L 2419 1625 
L 2419 4116 
z
M 2253 4666 
L 3047 4666 
L 3047 1625 
L 3713 1625 
L 3713 1100 
L 3047 1100 
L 3047 0 
L 2419 0 
L 2419 1100 
L 313 1100 
L 313 1709 
L 2253 4666 
z
" transform="scale(0.015625)"/>
       </defs>
       <use xlink:href="#DejaVuSans-34"/>
      </g>
     </g>
    </g>
    <g id="xtick_5">
     <g id="line2d_6">
      <g>
       <use xlink:href="#maa37a3dd8d" x="340.959799" y="160.2" style="stroke: #000000; stroke-width: 0.8"/>
      </g>
     </g>
     <g id="text_5">
      <!-- 5 -->
      <g transform="translate(337.778549 174.798438) scale(0.1 -0.1)">
       <defs>
        <path id="DejaVuSans-35" d="M 691 4666 
L 3169 4666 
L 3169 4134 
L 1269 4134 
L 1269 2991 
Q 1406 3038 1543 3061 
Q 1681 3084 1819 3084 
Q 2600 3084 3056 2656 
Q 3513 2228 3513 1497 
Q 3513 744 3044 326 
Q 2575 -91 1722 -91 
Q 1428 -91 1123 -41 
Q 819 9 494 109 
L 494 744 
Q 775 591 1075 516 
Q 1375 441 1709 441 
Q 2250 441 2565 725 
Q 2881 1009 2881 1497 
Q 2881 1984 2565 2268 
Q 2250 2553 1709 2553 
Q 1456 2553 1204 2497 
Q 953 2441 691 2322 
L 691 4666 
z
" transform="scale(0.015625)"/>
       </defs>
       <use xlink:href="#DejaVuSans-35"/>
      </g>
     </g>
    </g>
    <g id="xtick_6">
     <g id="line2d_7">
      <g>
       <use xlink:href="#maa37a3dd8d" x="397.040201" y="160.2" style="stroke: #000000; stroke-width: 0.8"/>
      </g>
     </g>
     <g id="text_6">
      <!-- 6 -->
      <g transform="translate(393.858951 174.798438) scale(0.1 -0.1)">
       <defs>
        <path id="DejaVuSans-36" d="M 2113 2584 
Q 1688 2584 1439 2293 
Q 1191 2003 1191 1497 
Q 1191 994 1439 701 
Q 1688 409 2113 409 
Q 2538 409 2786 701 
Q 3034 994 3034 1497 
Q 3034 2003 2786 2293 
Q 2538 2584 2113 2584 
z
M 3366 4563 
L 3366 3988 
Q 3128 4100 2886 4159 
Q 2644 4219 2406 4219 
Q 1781 4219 1451 3797 
Q 1122 3375 1075 2522 
Q 1259 2794 1537 2939 
Q 1816 3084 2150 3084 
Q 2853 3084 3261 2657 
Q 3669 2231 3669 1497 
Q 3669 778 3244 343 
Q 2819 -91 2113 -91 
Q 1303 -91 875 529 
Q 447 1150 447 2328 
Q 447 3434 972 4092 
Q 1497 4750 2381 4750 
Q 2619 4750 2861 4703 
Q 3103 4656 3366 4563 
z
" transform="scale(0.015625)"/>
       </defs>
       <use xlink:href="#DejaVuSans-36"/>
      </g>
     </g>
    </g>
    <g id="xtick_7">
     <g id="line2d_8">
      <g>
       <use xlink:href="#maa37a3dd8d" x="453.120603" y="160.2" style="stroke: #000000; stroke-width: 0.8"/>
      </g>
     </g>
     <g id="text_7">
      <!-- 7 -->
      <g transform="translate(449.939353 174.798438) scale(0.1 -0.1)">
       <defs>
        <path id="DejaVuSans-37" d="M 525 4666 
L 3525 4666 
L 3525 4397 
L 1831 0 
L 1172 0 
L 2766 4134 
L 525 4134 
L 525 4666 
z
" transform="scale(0.015625)"/>
       </defs>
       <use xlink:href="#DejaVuSans-37"/>
      </g>
     </g>
    </g>
    <g id="xtick_8">
     <g id="line2d_9">
      <g>
       <use xlink:href="#maa37a3dd8d" x="509.201005" y="160.2" style="stroke: #000000; stroke-width: 0.8"/>
      </g>
     </g>
     <g id="text_8">
      <!-- 8 -->
      <g transform="translate(506.019755 174.798438) scale(0.1 -0.1)">
       <defs>
        <path id="DejaVuSans-38" d="M 2034 2216 
Q 1584 2216 1326 1975 
Q 1069 1734 1069 1313 
Q 1069 891 1326 650 
Q 1584 409 2034 409 
Q 2484 409 2743 651 
Q 3003 894 3003 1313 
Q 3003 1734 2745 1975 
Q 2488 2216 2034 2216 
z
M 1403 2484 
Q 997 2584 770 2862 
Q 544 3141 544 3541 
Q 544 4100 942 4425 
Q 1341 4750 2034 4750 
Q 2731 4750 3128 4425 
Q 3525 4100 3525 3541 
Q 3525 3141 3298 2862 
Q 3072 2584 2669 2484 
Q 3125 2378 3379 2068 
Q 3634 1759 3634 1313 
Q 3634 634 3220 271 
Q 2806 -91 2034 -91 
Q 1263 -91 848 271 
Q 434 634 434 1313 
Q 434 1759 690 2068 
Q 947 2378 1403 2484 
z
M 1172 3481 
Q 1172 3119 1398 2916 
Q 1625 2713 2034 2713 
Q 2441 2713 2670 2916 
Q 2900 3119 2900 3481 
Q 2900 3844 2670 4047 
Q 2441 4250 2034 4250 
Q 1625 4250 1398 4047 
Q 1172 3844 1172 3481 
z
" transform="scale(0.015625)"/>
       </defs>
       <use xlink:href="#DejaVuSans-38"/>
      </g>
     </g>
    </g>
    <g id="xtick_9">
     <g id="line2d_10">
      <g>
       <use xlink:href="#maa37a3dd8d" x="565.281407" y="160.2" style="stroke: #000000; stroke-width: 0.8"/>
      </g>
     </g>
     <g id="text_9">
      <!-- 9 -->
      <g transform="translate(562.100157 174.798438) scale(0.1 -0.1)">
       <defs>
        <path id="DejaVuSans-39" d="M 703 97 
L 703 672 
Q 941 559 1184 500 
Q 1428 441 1663 441 
Q 2288 441 2617 861 
Q 2947 1281 2994 2138 
Q 2813 1869 2534 1725 
Q 2256 1581 1919 1581 
Q 1219 1581 811 2004 
Q 403 2428 403 3163 
Q 403 3881 828 4315 
Q 1253 4750 1959 4750 
Q 2769 4750 3195 4129 
Q 3622 3509 3622 2328 
Q 3622 1225 3098 567 
Q 2575 -91 1691 -91 
Q 1453 -91 1209 -44 
Q 966 3 703 97 
z
M 1959 2075 
Q 2384 2075 2632 2365 
Q 2881 2656 2881 3163 
Q 2881 3666 2632 3958 
Q 2384 4250 1959 4250 
Q 1534 4250 1286 3958 
Q 1038 3666 1038 3163 
Q 1038 2656 1286 2365 
Q 1534 2075 1959 2075 
z
" transform="scale(0.015625)"/>
       </defs>
       <use xlink:href="#DejaVuSans-39"/>
      </g>
     </g>
    </g>
    <g id="xtick_10">
     <g id="line2d_11">
      <g>
       <use xlink:href="#maa37a3dd8d" x="621.361809" y="160.2" style="stroke: #000000; stroke-width: 0.8"/>
      </g>
     </g>
     <g id="text_10">
      <!-- 10 -->
      <g transform="translate(614.999309 174.798438) scale(0.1 -0.1)">
       <defs>
        <path id="DejaVuSans-30" d="M 2034 4250 
Q 1547 4250 1301 3770 
Q 1056 3291 1056 2328 
Q 1056 1369 1301 889 
Q 1547 409 2034 409 
Q 2525 409 2770 889 
Q 3016 1369 3016 2328 
Q 3016 3291 2770 3770 
Q 2525 4250 2034 4250 
z
M 2034 4750 
Q 2819 4750 3233 4129 
Q 3647 3509 3647 2328 
Q 3647 1150 3233 529 
Q 2819 -91 2034 -91 
Q 1250 -91 836 529 
Q 422 1150 422 2328 
Q 422 3509 836 4129 
Q 1250 4750 2034 4750 
z
" transform="scale(0.015625)"/>
       </defs>
       <use xlink:href="#DejaVuSans-31"/>
       <use xlink:href="#DejaVuSans-30" x="63.623047"/>
      </g>
     </g>
    </g>
    <g id="text_11">
     <!-- Position -->
     <g transform="translate(349.535937 188.476562) scale(0.1 -0.1)">
      <defs>
       <path id="DejaVuSans-50" d="M 1259 4147 
L 1259 2394 
L 2053 2394 
Q 2494 2394 2734 2622 
Q 2975 2850 2975 3272 
Q 2975 3691 2734 3919 
Q 2494 4147 2053 4147 
L 1259 4147 
z
M 628 4666 
L 2053 4666 
Q 2838 4666 3239 4311 
Q 3641 3956 3641 3272 
Q 3641 2581 3239 2228 
Q 2838 1875 2053 1875 
L 1259 1875 
L 1259 0 
L 628 0 
L 628 4666 
z
" transform="scale(0.015625)"/>
       <path id="DejaVuSans-6f" d="M 1959 3097 
Q 1497 3097 1228 2736 
Q 959 2375 959 1747 
Q 959 1119 1226 758 
Q 1494 397 1959 397 
Q 2419 397 2687 759 
Q 2956 1122 2956 1747 
Q 2956 2369 2687 2733 
Q 2419 3097 1959 3097 
z
M 1959 3584 
Q 2709 3584 3137 3096 
Q 3566 2609 3566 1747 
Q 3566 888 3137 398 
Q 2709 -91 1959 -91 
Q 1206 -91 779 398 
Q 353 888 353 1747 
Q 353 2609 779 3096 
Q 1206 3584 1959 3584 
z
" transform="scale(0.015625)"/>
       <path id="DejaVuSans-73" d="M 2834 3397 
L 2834 2853 
Q 2591 2978 2328 3040 
Q 2066 3103 1784 3103 
Q 1356 3103 1142 2972 
Q 928 2841 928 2578 
Q 928 2378 1081 2264 
Q 1234 2150 1697 2047 
L 1894 2003 
Q 2506 1872 2764 1633 
Q 3022 1394 3022 966 
Q 3022 478 2636 193 
Q 2250 -91 1575 -91 
Q 1294 -91 989 -36 
Q 684 19 347 128 
L 347 722 
Q 666 556 975 473 
Q 1284 391 1588 391 
Q 1994 391 2212 530 
Q 2431 669 2431 922 
Q 2431 1156 2273 1281 
Q 2116 1406 1581 1522 
L 1381 1569 
Q 847 1681 609 1914 
Q 372 2147 372 2553 
Q 372 3047 722 3315 
Q 1072 3584 1716 3584 
Q 2034 3584 2315 3537 
Q 2597 3491 2834 3397 
z
" transform="scale(0.015625)"/>
       <path id="DejaVuSans-69" d="M 603 3500 
L 1178 3500 
L 1178 0 
L 603 0 
L 603 3500 
z
M 603 4863 
L 1178 4863 
L 1178 4134 
L 603 4134 
L 603 4863 
z
" transform="scale(0.015625)"/>
       <path id="DejaVuSans-74" d="M 1172 4494 
L 1172 3500 
L 2356 3500 
L 2356 3053 
L 1172 3053 
L 1172 1153 
Q 1172 725 1289 603 
Q 1406 481 1766 481 
L 2356 481 
L 2356 0 
L 1766 0 
Q 1100 0 847 248 
Q 594 497 594 1153 
L 594 3053 
L 172 3053 
L 172 3500 
L 594 3500 
L 594 4494 
L 1172 4494 
z
" transform="scale(0.015625)"/>
       <path id="DejaVuSans-6e" d="M 3513 2113 
L 3513 0 
L 2938 0 
L 2938 2094 
Q 2938 2591 2744 2837 
Q 2550 3084 2163 3084 
Q 1697 3084 1428 2787 
Q 1159 2491 1159 1978 
L 1159 0 
L 581 0 
L 581 3500 
L 1159 3500 
L 1159 2956 
Q 1366 3272 1645 3428 
Q 1925 3584 2291 3584 
Q 2894 3584 3203 3211 
Q 3513 2838 3513 2113 
z
" transform="scale(0.015625)"/>
      </defs>
      <use xlink:href="#DejaVuSans-50"/>
      <use xlink:href="#DejaVuSans-6f" x="56.677734"/>
      <use xlink:href="#DejaVuSans-73" x="117.859375"/>
      <use xlink:href="#DejaVuSans-69" x="169.958984"/>
      <use xlink:href="#DejaVuSans-74" x="197.742188"/>
      <use xlink:href="#DejaVuSans-69" x="236.951172"/>
      <use xlink:href="#DejaVuSans-6f" x="264.734375"/>
      <use xlink:href="#DejaVuSans-6e" x="325.916016"/>
     </g>
    </g>
   </g>
   <g id="matplotlib.axis_2">
    <g id="ytick_1">
     <g id="line2d_12">
      <defs>
       <path id="m24a9fc3966" d="M 0 0 
L -3.5 0 
" style="stroke: #000000; stroke-width: 0.8"/>
      </defs>
      <g>
       <use xlink:href="#m24a9fc3966" x="90" y="160.2" style="stroke: #000000; stroke-width: 0.8"/>
      </g>
     </g>
     <g id="text_12">
      <!-- 0 -->
      <g transform="translate(76.6375 163.999219) scale(0.1 -0.1)">
       <use xlink:href="#DejaVuSans-30"/>
      </g>
     </g>
    </g>
    <g id="ytick_2">
     <g id="line2d_13">
      <g>
       <use xlink:href="#m24a9fc3966" x="90" y="128.13098" style="stroke: #000000; stroke-width: 0.8"/>
      </g>
     </g>
     <g id="text_13">
      <!-- 1 -->
      <g transform="translate(76.6375 131.930198) scale(0.1 -0.1)">
       <use xlink:href="#DejaVuSans-31"/>
      </g>
     </g>
    </g>
    <g id="ytick_3">
     <g id="line2d_14">
      <g>
       <use xlink:href="#m24a9fc3966" x="90" y="96.061959" style="stroke: #000000; stroke-width: 0.8"/>
      </g>
     </g>
     <g id="text_14">
      <!-- 2 -->
      <g transform="translate(76.6375 99.861178) scale(0.1 -0.1)">
       <use xlink:href="#DejaVuSans-32"/>
      </g>
     </g>
    </g>
    <g id="ytick_4">
     <g id="line2d_15">
      <g>
       <use xlink:href="#m24a9fc3966" x="90" y="63.992939" style="stroke: #000000; stroke-width: 0.8"/>
      </g>
     </g>
     <g id="text_15">
      <!-- 3 -->
      <g transform="translate(76.6375 67.792158) scale(0.1 -0.1)">
       <use xlink:href="#DejaVuSans-33"/>
      </g>
     </g>
    </g>
    <g id="ytick_5">
     <g id="line2d_16">
      <g>
       <use xlink:href="#m24a9fc3966" x="90" y="31.923919" style="stroke: #000000; stroke-width: 0.8"/>
      </g>
     </g>
     <g id="text_16">
      <!-- 4 -->
      <g transform="translate(76.6375 35.723137) scale(0.1 -0.1)">
       <use xlink:href="#DejaVuSans-34"/>
      </g>
     </g>
    </g>
    <g id="text_17">
     <!-- Bits -->
     <g transform="translate(70.557812 100.284375) rotate(-90) scale(0.1 -0.1)">
      <defs>
       <path id="DejaVuSans-42" d="M 1259 2228 
L 1259 519 
L 2272 519 
Q 2781 519 3026 730 
Q 3272 941 3272 1375 
Q 3272 1813 3026 2020 
Q 2781 2228 2272 2228 
L 1259 2228 
z
M 1259 4147 
L 1259 2741 
L 2194 2741 
Q 2656 2741 2882 2914 
Q 3109 3088 3109 3444 
Q 3109 3797 2882 3972 
Q 2656 4147 2194 4147 
L 1259 4147 
z
M 628 4666 
L 2241 4666 
Q 2963 4666 3353 4366 
Q 3744 4066 3744 3513 
Q 3744 3084 3544 2831 
Q 3344 2578 2956 2516 
Q 3422 2416 3680 2098 
Q 3938 1781 3938 1306 
Q 3938 681 3513 340 
Q 3088 0 2303 0 
L 628 0 
L 628 4666 
z
" transform="scale(0.015625)"/>
      </defs>
      <use xlink:href="#DejaVuSans-42"/>
      <use xlink:href="#DejaVuSans-69" x="68.603516"/>
      <use xlink:href="#DejaVuSans-74" x="96.386719"/>
      <use xlink:href="#DejaVuSans-73" x="135.595703"/>
     </g>
    </g>
   </g>
   <g id="patch_13">
    <path d="M 90 160.2 
L 90 21.6 
" style="fill: none; stroke: #000000; stroke-linejoin: miter; stroke-linecap: square"/>
   </g>
   <g id="patch_14">
    <path d="M 90 160.2 
L 648 160.2 
" style="fill: none; stroke: #000000; stroke-linejoin: miter; stroke-linecap: square"/>
   </g>
  </g>
 </g>
 <defs>
  <clipPath id="pb40380c3d9">
   <rect x="90" y="21.6" width="558" height="138.6"/>
  </clipPath>
 </defs>
</svg>
